<?xml version="1.0" encoding="UTF-8"?>
<svg width="240px" height="61px" viewBox="0 0 240 61" version="1.1" xmlns="http://www.w3.org/2000/svg" xmlns:xlink="http://www.w3.org/1999/xlink">
    <!-- Generator: sketchtool 48.2 (47327) - http://www.bohemiancoding.com/sketch -->
    <title>8931F4E7-79CA-45F1-9FF5-5C3FD6F43EE3</title>
    <desc>Created with sketchtool.</desc>
    <defs></defs>
    <g id="footer" stroke="none" stroke-width="1" fill="none" fill-rule="evenodd" transform="translate(-1044.000000, -29.000000)">
        <g id="Footer" transform="translate(0.000000, -1.000000)">
            <g id="content" transform="translate(93.000000, 30.000000)">
                <g id="Contacts" transform="translate(951.000000, 0.000000)">
                    <g id="logo">
                        <path d="M49.3338645,35.4036505 L45.2211989,35.4036505 L40.6867785,48.3042342 L35.976318,35.4036505 L31.8284444,35.4036505 L38.9289725,53.3308255 C37.9802094,56.0381358 37.5929213,56.9520615 36.5737422,57.3734458 C35.7999073,57.6899472 34.7106828,57.6899472 33.4102103,56.9868989 L32.3554526,59.8343 C33.6210877,60.6429723 35.3785231,61.0295191 37.1011211,60.6073937 C40.6867785,60.1856388 41.3546187,57.1977763 42.6902993,53.612119 L49.3338645,35.4036505 Z M24.9046975,34.8410637 C22.1981284,34.8410637 19.2454739,36.3876216 17.8041694,38.3207264 C17.0307051,35.825776 15.2728991,34.8410637 12.8824609,34.8410637 C10.3511906,34.8410637 7.64499212,36.1767442 6.09806356,37.8989716 C5.92239414,35.7197813 5.00846845,35.1571945 3.4971185,35.1571945 C2.33673677,35.1571945 1.14151765,35.5089039 0.333586584,35.7901974 L0.333586584,38.6375984 C0.754970814,38.5668118 1.10668026,38.5319744 1.42281108,38.5668118 C1.91498193,38.6375984 2.16106736,38.9185213 2.16106736,39.5511535 L2.16106736,53.3308255 L6.13364218,53.3308255 L6.13364218,40.7463726 C7.22286667,39.5867321 9.3323821,38.497137 11.2302789,38.4615584 C14.2533494,38.4615584 14.2533494,41.3089595 14.2533494,43.3828963 L14.2533494,53.3308255 L18.2255536,53.3308255 L18.2255536,40.7815807 C19.3151487,39.6215695 21.3894561,38.497137 23.2877235,38.4615584 C26.3104234,38.4615584 26.3104234,41.1681275 26.3104234,43.3828963 L26.3104234,53.3308255 L30.2829982,53.3308255 L30.2829982,41.6254609 C30.2829982,36.704123 28.1738534,34.8410637 24.9046975,34.8410637 Z" id="Fill-1" fill="#110C33"></path>
                        <path d="M160.302418,35.4036505 L156.189382,35.4036505 L151.654962,48.3042342 L146.944501,35.4036505 L142.796627,35.4036505 L149.897156,53.3308255 C148.948022,56.0381358 148.561475,56.9520615 147.542296,57.3734458 C146.768461,57.6899472 145.679237,57.6899472 144.378764,56.9868989 L143.324006,59.8343 C144.589641,60.6429723 146.347447,61.0295191 148.069304,60.6073937 C151.654962,60.1856388 152.323172,57.1977763 153.658482,53.612119 L160.302418,35.4036505 Z M128.234226,43.9099046 C128.304271,40.4302418 130.272955,38.2510516 133.225239,38.1806356 C135.650885,38.1102196 137.443528,39.5867321 138.006115,42.0472158 L128.234226,43.9099046 Z M133.3657,50.5186324 C130.8348,50.5897897 129.147781,49.0776985 128.585565,46.6872603 L141.908274,44.0507366 C141.837858,38.3918836 138.252201,34.8410637 133.436857,34.8410637 C128.515149,34.8410637 124.648569,38.4615584 124.648569,44.3324006 C124.648569,49.9212082 128.093394,53.893783 133.3657,53.893783 C137.233021,53.893783 140.185676,51.7846382 141.592143,48.4094876 L138.357454,47.0738071 C137.443528,49.1833225 135.721301,50.5186324 133.3657,50.5186324 Z M116.176781,34.8410637 C113.68109,34.8410637 110.939683,36.1415362 109.427592,37.8637636 C109.216715,35.7197813 108.373205,35.1571945 106.826276,35.1571945 C105.701844,35.1571945 104.506254,35.5089039 103.697952,35.7901974 L103.697952,38.6375984 C104.119707,38.5668118 104.471417,38.5319744 104.75271,38.5668118 C105.24451,38.6375984 105.490596,38.9185213 105.490596,39.5511535 L105.490596,53.3308255 L109.4628,53.3308255 L109.4628,40.6763272 C110.587603,39.5511535 112.66191,38.497137 114.524599,38.4615584 C117.54804,38.4615584 117.54804,41.1681275 117.54804,43.3828963 L117.54804,53.3308255 L121.519874,53.3308255 L121.519874,41.6254609 C121.519874,36.704123 119.410729,34.8410637 116.176781,34.8410637 Z M93.2289447,38.3918836 C96.3220606,38.3918836 98.290744,40.7463726 98.290744,44.3324006 C98.290744,47.9528954 96.3220606,50.3433336 93.2289447,50.3433336 C90.1350876,50.3433336 88.2019828,47.9877328 88.2019828,44.3324006 C88.2019828,40.7463726 90.1350876,38.3918836 93.2289447,38.3918836 Z M93.2289447,34.8410637 C88.0963588,34.8410637 84.440656,38.7428518 84.440656,44.3324006 C84.440656,49.9564162 88.0963588,53.893783 93.2289447,53.893783 C98.3604188,53.893783 102.0517,49.9564162 102.0517,44.3324006 C102.0517,38.7428518 98.3604188,34.8410637 93.2289447,34.8410637 Z M75.9395905,34.8410637 C73.2330214,34.8410637 70.2803669,36.3876216 68.8390624,38.3207264 C68.0659687,35.825776 66.3077921,34.8410637 63.9177245,34.8410637 C61.3864542,34.8410637 58.6798851,36.1767442 57.1333272,37.8989716 C56.9576577,35.7197813 56.043732,35.1571945 54.5320115,35.1571945 C53.3720004,35.1571945 52.1767812,35.5089039 51.3684796,35.7901974 L51.3684796,38.6375984 C51.7902344,38.5668118 52.1415732,38.5319744 52.4584453,38.5668118 C52.9502455,38.6375984 53.1959603,38.9185213 53.1959603,39.5511535 L53.1959603,53.3308255 L57.1685352,53.3308255 L57.1685352,40.7463726 C58.2581303,39.5867321 60.3676457,38.497137 62.2655425,38.4615584 C65.288613,38.4615584 65.288613,41.3089595 65.288613,43.3828963 L65.288613,53.3308255 L69.2611878,53.3308255 L69.2611878,40.7815807 C70.3504123,39.6215695 72.4247197,38.497137 74.3229871,38.4615584 C77.345687,38.4615584 77.345687,41.1681275 77.345687,43.3828963 L77.345687,53.3308255 L81.3182618,53.3308255 L81.3182618,41.6254609 C81.3182618,36.704123 79.2087464,34.8410637 75.9395905,34.8410637 Z" id="Fill-4" fill="#00B1EB"></path>
                        <path d="M226.28159,48.2693598 L229.375076,45.0702492 L234.928676,53.3311591 L239.287798,53.3311591 L232.046438,42.2932642 L238.725581,35.4036135 L233.979542,35.4036135 L226.28159,43.3128139 L226.28159,26.9670342 L222.309386,26.9670342 L222.309386,53.3311591 L226.28159,53.3311591 L226.28159,48.2693598 Z M213.095265,34.8413972 C210.599944,34.8413972 207.858167,36.1414991 206.346447,37.8640971 C206.135569,35.7197443 205.291318,35.157528 203.74476,35.157528 C202.620328,35.157528 201.425109,35.5088669 200.616807,35.7901603 L200.616807,38.6375614 C201.038562,38.5671454 201.389901,38.532308 201.671194,38.5671454 C202.163365,38.6375614 202.409451,38.9188548 202.409451,39.5514871 L202.409451,53.3311591 L206.381284,53.3311591 L206.381284,40.6762902 C207.506458,39.5514871 209.580395,38.4971 211.443083,38.4615214 C214.466525,38.4615214 214.466525,41.1680904 214.466525,43.3824887 L214.466525,53.3311591 L218.438729,53.3311591 L218.438729,41.6250533 C218.438729,36.704086 216.329584,34.8413972 213.095265,34.8413972 Z M185.817956,48.3041972 C185.817956,45.9493375 187.681386,45.2811267 190.071454,45.0702492 C191.47755,44.9294172 192.778023,44.7889558 193.65674,44.2619476 L193.621903,49.1829149 C192.426313,50.1320485 190.844547,50.9055128 189.12232,50.9759288 C187.575391,51.0811822 185.817956,50.589382 185.817956,48.3041972 Z M198.332364,50.3080886 C197.804614,50.2376726 197.523691,49.9563791 197.523691,49.3237469 L197.523691,40.6762902 C197.523691,36.844918 195.028,34.8413972 190.528417,34.8413972 C185.395831,34.8413972 183.778857,37.4423423 183.111387,39.2349856 L186.274919,40.5354582 C186.802298,39.5162791 187.681386,37.9341425 190.387585,37.9341425 C192.32106,37.9341425 193.621903,38.6023534 193.65674,40.7815436 C193.691948,42.538979 190.563254,42.750227 188.419272,42.9258964 C186.098879,43.1367738 181.670082,43.6993607 181.670082,48.5154452 C181.670082,52.6629482 185.009284,53.8933753 187.43493,53.8933753 C189.860576,53.8933753 192.215436,52.8386176 193.902826,51.3976837 C194.078495,53.084703 194.781914,53.6120819 196.292894,53.6120819 C197.348022,53.6120819 198.578078,53.2607431 199.386751,52.9794496 L199.386751,50.2024646 C198.964625,50.2728806 198.578078,50.342926 198.332364,50.3080886 Z M171.160308,50.3080886 C168.699453,50.3080886 166.309015,48.5506532 166.309015,46.3006764 L166.309015,40.9927916 C167.539072,39.1649402 169.472547,38.391476 171.194774,38.391476 C174.253053,38.391476 176.186899,40.7114982 176.186899,44.331993 C176.186899,47.9528583 174.253053,50.3080886 171.160308,50.3080886 Z M171.546484,34.8413972 C169.332086,34.8413972 167.57465,35.7901603 166.309015,37.0202168 L166.309015,26.9670342 L162.336811,26.9670342 L162.336811,53.3311591 L164.516001,53.3311591 C165.535921,53.3311591 165.852052,52.7333642 165.957306,51.1864357 C167.257778,52.8034096 169.226832,53.8933753 171.582062,53.8933753 C176.573075,53.8933753 179.947855,49.6750857 179.947855,44.367201 C179.947855,39.0593162 176.573075,34.8413972 171.546484,34.8413972 Z" id="Fill-7" fill="#110C33"></path>
                        <path d="M228.257352,0.307495599 C222.475086,0.307495599 217.789456,4.94123969 217.789456,10.6582785 C217.789456,16.3749467 222.475086,21.0086908 228.257352,21.0086908 C234.039618,21.0086908 238.725618,16.3749467 238.725618,10.6582785 C238.725618,4.94123969 234.039618,0.307495599 228.257352,0.307495599 M228.257352,15.0818864 C225.786491,15.0818864 223.783712,13.1013435 223.783712,10.6582785 C223.783712,8.21484295 225.786491,6.23430001 228.257352,6.23430001 C230.728583,6.23430001 232.730622,8.21484295 232.730622,10.6582785 C232.730622,13.1013435 230.728583,15.0818864 228.257352,15.0818864" id="Fill-10" fill="#00B1EB"></path>
                        <path d="M186.472417,10.6540165 C186.472417,5.75528583 183.030186,1.65410914 178.405707,0.580079681 L178.405707,6.92604466 C179.650588,7.71173909 180.478162,9.08633373 180.478162,10.6540165 C180.478162,12.2216992 179.650588,13.5962939 178.405707,14.3816177 L178.405707,20.7275827 C183.030186,19.6539238 186.472417,15.5523765 186.472417,10.6540165" id="Fill-12" fill="#00B1EB"></path>
                        <path d="M167.989326,10.6250718 C167.989326,6.62618364 165.694135,3.15986287 162.336774,1.43578245 L162.336774,19.8143612 C165.694135,18.0906513 167.989326,14.6235894 167.989326,10.6250718" id="Fill-14" fill="#00B1EB"></path>
                        <path d="M198.6121,0.297526174 C197.825294,0.297526174 197.059242,0.386843324 196.320615,0.548800148 L196.320615,6.85362735 C196.991791,6.45670342 197.773409,6.22433058 198.6121,6.22433058 C201.083332,6.22433058 203.086111,8.20487353 203.086111,10.6483091 C203.086111,13.091374 201.083332,15.0722876 198.6121,15.0722876 C197.773409,15.0722876 196.991791,14.8399148 196.320615,14.4422496 L196.320615,20.7474474 C197.059242,20.9105161 197.825294,20.9987214 198.6121,20.9987214 C204.394367,20.9987214 209.081108,16.3649773 209.081108,10.6483091 C209.081108,4.93127027 204.394367,0.297526174 198.6121,0.297526174" id="Fill-16" fill="#00B1EB"></path>
                    </g>
                </g>
            </g>
        </g>
    </g>
</svg>