<?xml version="1.0" encoding="UTF-8"?>
<svg id="SVGRoot" width="500" height="59.32" version="1.1" viewBox="0 0 500 59.319772" xmlns="http://www.w3.org/2000/svg" xmlns:cc="http://creativecommons.org/ns#" xmlns:dc="http://purl.org/dc/elements/1.1/" xmlns:rdf="http://www.w3.org/1999/02/22-rdf-syntax-ns#"><metadata><rdf:RDF><cc:Work rdf:about=""><dc:format>image/svg+xml</dc:format><dc:type rdf:resource="http://purl.org/dc/dcmitype/StillImage"/><dc:title/></cc:Work></rdf:RDF></metadata><g transform="translate(-1333.5 289.98)"><g><path d="m1390.4-251.51 9.2387-4.944 6.8594 14.266h-10.209c0 6e-3 -1.9676 6e-3 -2.7517-1.7679-0.7332-1.9547-3.1179-7.5541-3.1375-7.5541" fill="#636466"/><path d="m1334.4-230.99h74.28v-6.6474h-74.28z" fill="#636466"/><path d="m1414.2-279.71c-0.016 0-11.688 6.7118-14.42 7.7275-2.514 0.98992-3.4585-0.31559-3.7612-0.78461-0.6754-1.0217-1.7807-4.4226-1.935-4.9372 0.063 0.0158 0.707 0.13446 2.2052-0.23728 1.7746-0.45004 17.898-9.4702 17.911-9.4573" fill="#006c50"/><path d="m1395.5-265.89-7.6699-16.998h-11.161l-15.674 29.245c0.016 0 7.7146-0.23807 12.646-3.9602 1.254-0.73319 4.7707-9.9713 7.9915-16.181l5.0144 12.549c-7.5798 3.883-14.78 7.284-18.651 8.3836-10.228 2.9446-22.681 4.7124-27.156 0.74505-4.2108-3.7348 5.5094-19.37 23.883-22.855 2.9832-0.66201 4.7192-0.49512 4.7192-0.47614 0-0.0158-1.254-5.3421-2.2371-6.4674-1.3697-1.6779-2.713-2.0252-4.7124-1.7679-3.9798 0.23807-20.907 4.7449-27.581 18.85-3.7219 8.0105 1.2282 16.098 4.4361 18.438 1.4849 1.0928 11.097 9.7079 33.315 0.99665 21.897-8.4925 41.518-21.871 41.531-21.871v-8.9489c-0.01-0.0158-8.6537 4.944-18.695 10.319" fill="#636466"/></g><g fill="#00664b"><path d="m1449.4-283.31c3.8247 0 7.7979 1.17 11.064 3.5106l-2.4815 3.227c-2.6616-1.8512-4.8925-2.8735-8.2616-2.8735-5.8499 0-10.428 3.6515-10.428 8.9684 0 5.3232 4.5776 8.9747 10.428 8.9747 3.5425 0 5.8825-1.0996 8.718-3.015l2.4815 3.2208c-3.3305 2.3786-7.5155 3.6515-11.52 3.6515-8.0491 0-15.636-4.751-15.636-12.864 0-8.1263 7.5865-12.8 15.636-12.8"/><path d="m1466.6-282.89h13.436c6.2426 0 11.308 2.5139 11.308 7.978 0 4.2561-3.118 6.4871-7.3354 7.445l8.1194 9.3925h-6.21l-7.3741-8.6469h-6.6285v8.6469h-5.3164zm13.044 12.305c3.7606 0 6.1716-1.5626 6.1716-4.2561 0-2.623-2.3081-4.076-6.2041-4.076h-7.6956v8.332"/><path d="m1497.7-265.23v-17.654h22.476v3.9663h-17.159v5.9921h15.745v3.864h-15.745v3.8316c0 2.1599 1.0291 3.1884 3.1185 3.1884h14.542v3.9731h-15.815c-4.5391 0-7.1621-2.6616-7.1621-7.1615m17.127-24.745-4.1146 4.359h-4.5385l3.1179-4.359"/><path d="m1527.4-282.89h11.206c9.5724 0 15.95 4.9629 15.95 12.408 0 7.4445-6.3773 12.407-15.95 12.407h-11.206zm11.559 20.849c6.0239 0 10.067-3.369 10.067-8.4025 0-5.0726-4.0435-8.4736-10.067-8.4736h-6.2426v16.876"/><path d="m1560.6-258.07h5.3167v-24.822h-5.3167z"/><path d="m1571.6-278.92v-3.9731h24.391v3.9731h-9.5338v20.849h-5.3171v-20.849"/><path d="m1629.5-264.06h-13.687l-2.9771 5.9915h-5.4254l12.87-24.815h5.4261l12.87 24.815h-6.101zm-1.9479-3.8641-4.8925-9.8555-4.8926 9.8555"/><path d="m1656.2-283.31c3.8316 0 7.7985 1.17 11.064 3.5106l-2.4815 3.227c-2.6616-1.8512-4.8925-2.8735-8.261-2.8735-5.8505 0-10.428 3.581-10.428 8.8913 0 5.2459 4.0822 9.0518 10.248 9.0518 2.7326 0 5.246-0.74585 7.0206-1.9222v-4.751h-7.4837v-3.7869h12.8v10.415c-2.9765 2.128-7.1939 3.9026-12.549 3.9026-9.3606 0-15.565-5.529-15.565-12.864 0-8.1263 7.5859-12.8 15.635-12.8"/><path d="m1675.8-282.89h13.436c6.2425 0 11.308 2.5139 11.308 7.978 0 4.2561-3.1112 6.4871-7.3354 7.445l8.1262 9.3925h-6.2169l-7.374-8.6469h-6.6279v8.6469h-5.317zm13.044 12.305c3.7672 0 6.1782-1.5626 6.1782-4.2561 0-2.623-2.3142-4.076-6.2101-4.076h-7.6956v8.332"/><path d="m1707.7-258.07h5.3167v-24.822h-5.3167z"/><path d="m1735.1-283.31c3.8315 0 7.7985 1.17 11.064 3.5106l-2.4815 3.227c-2.6617-1.8512-4.8925-2.8735-8.261-2.8735-5.8506 0-10.428 3.6515-10.428 8.9684 0 5.3232 4.5771 8.9747 10.428 8.9747 3.5425 0 5.8824-1.0996 8.7174-3.015l2.4814 3.2208c-3.3299 2.3786-7.5155 3.6515-11.52 3.6515-8.049 0-15.635-4.751-15.635-12.864 0-8.1263 7.586-12.8 15.635-12.8"/><path d="m1749-270.48c0-7.0205 6.5257-12.833 15.706-12.833 9.1804 0 15.705 5.812 15.705 12.833 0 7.02-6.525 12.832-15.705 12.832-9.1805 0-15.706-5.812-15.706-12.832m5.529 0c0 5.0016 4.1532 8.968 10.177 8.968 6.0238 0 10.176-3.9664 10.176-8.968 0-5.0022-4.1526-8.9684-10.176-8.9684-6.024 0-10.177 3.9663-10.177 8.9684"/><path d="m1785.7-282.89h5.3165v20.849h15.776v3.9664h-21.093"/><path d="m1810.6-265.23v-17.654h22.476v3.9663h-17.158v5.9921h15.745v3.864h-15.745v3.8316c0 2.1599 1.0284 3.1884 3.1247 3.1884h14.535v3.9731h-15.815c-4.539 0-7.1621-2.6616-7.1621-7.1615"/></g><g fill="#636466" fill-opacity=".93407"><path d="m1446.6-250.25c2.925 0 5.9535 0.89376 8.441 2.6812l-1.8897 2.4618c-2.0319-1.4076-3.7354-2.1917-6.3069-2.1917-4.4681 0-7.9591 2.7834-7.9591 6.8465 0 4.0564 3.491 6.8466 7.9591 6.8466 2.7062 0 4.4937-0.84226 6.6536-2.3014l1.8971 2.4625c-2.5464 1.8126-5.7348 2.7834-8.7951 2.7834-6.1459 0-11.932-3.6257-11.932-9.8236 0-6.1972 5.7862-9.7655 11.932-9.7655"/><path d="m1457.3-240.45c0-5.3556 4.9758-9.7979 11.99-9.7979 7.0077 0 11.984 4.4423 11.984 9.7979 0 5.355-4.9758 9.798-11.984 9.798-7.0138 0-11.99-4.443-11.99-9.798m4.2236 0c0 3.8187 3.1632 6.8466 7.766 6.8466 4.5967 0 7.7667-3.0279 7.7667-6.8466s-3.17-6.8465-7.7667-6.8465c-4.6027 0-7.766 3.0278-7.766 6.8465"/><path d="m1489.2-244.49v13.501h-4.0564v-18.939h4.0564l11.611 13.475v-13.475h4.0563v18.939h-4.0563"/><path d="m1509.1-233.67 1.8965-2.7327c2.4625 1.8132 5.8181 2.6488 8.7112 2.6488 3.0021 0 5.4647-0.88695 5.4647-2.2946 0-1.4658-2.7327-2.0319-5.8696-2.7069-4.3332-0.91946-9.4702-2.0056-9.4702-5.7924 0-3.5167 4.3848-5.7091 9.3863-5.7091 3.4395 0 7.0395 0.97095 9.6374 2.7327l-1.8971 2.732c-2.1341-1.6202-5.0076-2.4361-7.6564-2.4361-2.7068 0-5.3041 0.84171-5.3041 2.1917 0 1.2729 2.4882 1.7875 5.4646 2.3854 4.4105 0.89367 9.8751 1.9994 9.8751 6.114 0 3.7353-4.4876 5.8695-9.5792 5.8695-3.9216 0-7.869-1.1639-10.659-3.0021"/><path d="m1533.4-239.51v-10.415h4.0563v10.659c0 3.3813 2.3596 5.657 5.9277 5.657 3.5486 0 5.9015-2.2757 5.9015-5.657v-10.659h3.9222v10.415c0 5.3035-3.9474 8.8459-9.9069 8.8459-5.9467 0-9.9008-3.5424-9.9008-8.8459"/><path d="m1576.7-249.92h4.3271v18.939h-4.057v-14.124l-7.5216 10.582-7.3097-10.254v13.796h-3.5167v-18.939h4.3333l6.8723 9.63"/><path d="m1586.3-236.45v-13.475h17.152v3.0279h-13.096v4.577h12.016v2.9514h-12.016v2.9182c0 1.6526 0.7846 2.4368 2.3853 2.4368h11.097v3.0278h-12.074c-3.4653 0-5.4648-2.0251-5.4648-5.4646"/><path d="m1608.8-249.92h10.254c4.7638 0 8.634 1.9222 8.634 6.0876 0 3.2466-2.3786 4.9508-5.5995 5.6834l6.1974 7.1681h-4.7382l-5.6313-6.6021h-5.0598v6.6021h-4.0563zm9.9579 9.3924c2.8673 0 4.7062-1.1956 4.7062-3.2533 0-1.9994-1.755-3.1112-4.7314-3.1112h-5.8763v6.3645"/><path d="m1643-249.92h17.158v3.0279h-13.102v5.9272h11.476v2.9513h-11.476v7.0328h-4.0564"/><path d="m1664.6-230.99h4.0566v-18.946h-4.0566z"/><path d="m1678.4-244.49v13.501h-4.0563v-18.939h4.0563l11.611 13.475v-13.475h4.0564v18.939h-4.0564"/><path d="m1714.4-235.56h-10.447l-2.2695 4.5648h-4.1404l9.8237-18.94h4.1403l9.8236 18.94h-4.6548zm-1.4854-2.9574-3.7348-7.5149-3.7354 7.5149"/><path d="m1728.7-244.49v13.501h-4.0563v-18.939h4.0563l11.61 13.475v-13.475h4.057v18.939h-4.057"/><path d="m1760.8-250.25c2.9182 0 5.9528 0.89376 8.4411 2.6812l-1.8904 2.4618c-2.0313-1.4076-3.7348-2.1917-6.3069-2.1917-4.468 0-7.959 2.7834-7.959 6.8465 0 4.0564 3.491 6.8466 7.959 6.8466 2.7069 0 4.4943-0.84226 6.6542-2.3014l1.8965 2.4625c-2.5458 1.8126-5.7348 2.7834-8.7945 2.7834-6.1464 0-11.932-3.6257-11.932-9.8236 0-6.1972 5.7857-9.7655 11.932-9.7655"/><path d="m1773.4-236.45v-13.475h17.159v3.0279h-13.102v4.577h12.015v2.9514h-12.015v2.9182c0 1.6526 0.7901 2.4368 2.3846 2.4368h11.097v3.0278h-12.074c-3.4585 0-5.4647-2.0251-5.4647-5.4646"/></g></g></svg>
