<svg xmlns="http://www.w3.org/2000/svg" width="222.513" height="27.357" viewBox="0 0 222.513 27.357">
  <g id="Illustration_5" data-name="Illustration 5" transform="translate(111.257 13.901)">
    <g id="Groupe_10429" data-name="Groupe 10429" transform="translate(-111.257 -13.456)">
      <g id="Calque_1" data-name="Calque 1">
        <path id="Tracé_807907" data-name="Tracé 807907" d="M134.872,26.974a7.272,7.272,0,0,1-3.029-.633,7.907,7.907,0,0,1-2.445-1.7,7.791,7.791,0,0,1-1.628-2.5,7.892,7.892,0,0,1-.587-3.029v-.064a7.892,7.892,0,0,1,.587-3.029,7.749,7.749,0,0,1,4.083-4.205,7.38,7.38,0,0,1,3.039-.633,6.946,6.946,0,0,1,3.48.8,11.064,11.064,0,0,1,2.547,2l-.451.422a10.235,10.235,0,0,0-2.371-1.85,6.414,6.414,0,0,0-3.234-.766,6.751,6.751,0,0,0-2.787.574,7,7,0,0,0-2.23,1.567,7.189,7.189,0,0,0-1.477,2.305,7.394,7.394,0,0,0-.528,2.788v.06a7.429,7.429,0,0,0,2.034,5.123,7.149,7.149,0,0,0,2.245,1.583,6.632,6.632,0,0,0,2.773.587,6.263,6.263,0,0,0,3.3-.828,9.849,9.849,0,0,0,2.367-1.974l.451.422a9.866,9.866,0,0,1-2.547,2.112A7.009,7.009,0,0,1,134.872,26.974Z" transform="translate(11.899 -4.613)" fill="#515d71" stroke="#515d71" stroke-linecap="round" stroke-linejoin="round" stroke-width="0.889"/>
        <path id="Tracé_807908" data-name="Tracé 807908" d="M142.8,11.544h.667v4.822a8.782,8.782,0,0,1,.8-1.869,7.038,7.038,0,0,1,1.311-1.667,6.347,6.347,0,0,1,1.809-1.194,5.616,5.616,0,0,1,2.29-.451v.608h-.151a4.694,4.694,0,0,0-2.531.693,6.959,6.959,0,0,0-1.9,1.736,8.107,8.107,0,0,0-1.206,2.279,7.194,7.194,0,0,0-.422,2.321v7.806H142.8Z" transform="translate(13.642 -4.612)" fill="#515d71" stroke="#515d71" stroke-linecap="round" stroke-linejoin="round" stroke-width="0.889"/>
        <path id="Tracé_807909" data-name="Tracé 807909" d="M157.941,26.973a7.685,7.685,0,0,1-2.916-.556,7.187,7.187,0,0,1-2.4-1.583A7.513,7.513,0,0,1,151,22.348a8.481,8.481,0,0,1-.6-3.27v-.06a8.774,8.774,0,0,1,.542-3.1,7.465,7.465,0,0,1,1.506-2.487,7.092,7.092,0,0,1,2.292-1.64,6.909,6.909,0,0,1,2.89-.6,6.411,6.411,0,0,1,3.089.708,6.59,6.59,0,0,1,2.171,1.854,7.847,7.847,0,0,1,1.265,2.557,10.22,10.22,0,0,1,.407,2.832v.12h-13.5a7.585,7.585,0,0,0,.606,2.939,7.352,7.352,0,0,0,1.5,2.245,6.3,6.3,0,0,0,2.165,1.432,7.018,7.018,0,0,0,2.634.5,6.107,6.107,0,0,0,3.224-.889,7.928,7.928,0,0,0,2.377-2.154l.515.361a7.87,7.87,0,0,1-2.557,2.351,6.921,6.921,0,0,1-3.579.935Zm5.952-8.288a9.075,9.075,0,0,0-.484-2.531,7.079,7.079,0,0,0-1.212-2.2,6.114,6.114,0,0,0-1.953-1.567,5.684,5.684,0,0,0-2.649-.6,6.215,6.215,0,0,0-2.589.528,6.349,6.349,0,0,0-2.029,1.445,6.8,6.8,0,0,0-1.362,2.184,8.337,8.337,0,0,0-.556,2.742Z" transform="translate(14.489 -4.612)" fill="#515d71" stroke="#515d71" stroke-linecap="round" stroke-linejoin="round" stroke-width="0.889"/>
        <path id="Tracé_807910" data-name="Tracé 807910" d="M173.226,27.633a7.379,7.379,0,0,1-6.962-4.792,8.482,8.482,0,0,1-.556-3.074v-.06a8.482,8.482,0,0,1,.556-3.074,7.379,7.379,0,0,1,6.962-4.792,7.607,7.607,0,0,1,2.421.377,7.106,7.106,0,0,1,2.03,1.055,6.825,6.825,0,0,1,1.534,1.6,7.273,7.273,0,0,1,.963,2V5.272h.667v22h-.667V22.6a7.266,7.266,0,0,1-.963,2,6.818,6.818,0,0,1-1.534,1.6,7.1,7.1,0,0,1-2.03,1.055A7.606,7.606,0,0,1,173.226,27.633Zm.03-.6a6.647,6.647,0,0,0,2.812-.587,6.838,6.838,0,0,0,2.192-1.582,7.259,7.259,0,0,0,1.428-2.305,7.6,7.6,0,0,0,.511-2.787v-.061a7.638,7.638,0,0,0-.511-2.773,7.018,7.018,0,0,0-3.638-3.907,6.547,6.547,0,0,0-2.8-.587,6.953,6.953,0,0,0-2.812.556,6.4,6.4,0,0,0-2.181,1.537,6.964,6.964,0,0,0-1.4,2.305,8.031,8.031,0,0,0-.5,2.832v.06a8.023,8.023,0,0,0,.5,2.832,7.133,7.133,0,0,0,1.4,2.321,6.475,6.475,0,0,0,2.181,1.567,6.792,6.792,0,0,0,2.812.577Z" transform="translate(16.199 -5.272)" fill="#515d71" stroke="#515d71" stroke-linecap="round" stroke-linejoin="round" stroke-width="0.889"/>
        <path id="Tracé_807911" data-name="Tracé 807911" d="M183.845,6.085h.964V7.8h-.964ZM184,12.113h.667V27.181H184Z" transform="translate(18.223 -5.181)" fill="#515d71" stroke="#515d71" stroke-linecap="round" stroke-linejoin="round" stroke-width="0.889"/>
        <path id="Tracé_807912" data-name="Tracé 807912" d="M194.073,27.37a3.755,3.755,0,0,1-2.89-1.07,4.327,4.327,0,0,1-.994-3.058V12.6H187.8v-.569h2.381V6.822h.667v5.21h5.576V12.6h-5.576V23.184a3.962,3.962,0,0,0,.8,2.651,3.016,3.016,0,0,0,2.426.935,5.059,5.059,0,0,0,2.29-.542v.667a5.452,5.452,0,0,1-2.29.476Z" transform="translate(18.664 -5.099)" fill="#515d71" stroke="#515d71" stroke-linecap="round" stroke-linejoin="round" stroke-width="0.889"/>
        <g id="younited">
          <path id="Tracé_807913" data-name="Tracé 807913" d="M6.825,31.572a7.368,7.368,0,0,1-2.031-.256,8.847,8.847,0,0,1-1.736-.7L4.293,27.9a6.186,6.186,0,0,0,1.035.435,3.659,3.659,0,0,0,1.1.166,2.075,2.075,0,0,0,1.3-.391,3.6,3.6,0,0,0,.965-1.445L2.064,10.751H5.955l4.518,11.813L14.6,10.75h3.8L12.064,27.113a13.518,13.518,0,0,1-.994,2.08,5.447,5.447,0,0,1-1.145,1.372,4.113,4.113,0,0,1-1.386.768,5.636,5.636,0,0,1-1.714.24Z" transform="translate(-2.064 -4.661)" fill="#515d71"/>
          <path id="Tracé_807914" data-name="Tracé 807914" d="M26.689,27.056a8.635,8.635,0,0,1-3.365-.651,8.349,8.349,0,0,1-2.683-1.762,7.979,7.979,0,0,1-1.763-2.622,8.164,8.164,0,0,1-.632-3.194v-.061a8.071,8.071,0,0,1,.651-3.224,8.3,8.3,0,0,1,4.46-4.431,8.549,8.549,0,0,1,3.39-.667,8.724,8.724,0,0,1,3.39.651A8.146,8.146,0,0,1,35.219,18.7v.06a8,8,0,0,1-.651,3.194,8.264,8.264,0,0,1-4.479,4.434,8.656,8.656,0,0,1-3.4.664Zm.061-3.164a4.709,4.709,0,0,0,1.992-.407,4.624,4.624,0,0,0,1.513-1.1,4.757,4.757,0,0,0,.954-1.615,5.719,5.719,0,0,0,.326-1.944v-.06a5.5,5.5,0,0,0-.359-1.989,5.011,5.011,0,0,0-1-1.628,4.808,4.808,0,0,0-1.527-1.1,4.933,4.933,0,0,0-3.924,0,4.74,4.74,0,0,0-1.513,1.085,4.579,4.579,0,0,0-.958,1.613,5.855,5.855,0,0,0-.326,1.959v.06a5.368,5.368,0,0,0,.359,1.974,5.21,5.21,0,0,0,1,1.628,4.694,4.694,0,0,0,1.532,1.112,4.558,4.558,0,0,0,1.932.409Z" transform="translate(-0.258 -4.695)" fill="#515d71"/>
          <path id="Tracé_807915" data-name="Tracé 807915" d="M41.794,26.993a5.293,5.293,0,0,1-4.177-1.657,6.469,6.469,0,0,1-1.473-4.461V10.751h3.677v9.021a4.224,4.224,0,0,0,.882,2.872,3.139,3.139,0,0,0,2.5,1.007,3.383,3.383,0,0,0,2.569-1.037,4.042,4.042,0,0,0,.987-2.9V10.751h3.681V26.66H46.756v-2.5A7.808,7.808,0,0,1,44.8,26.157,5.053,5.053,0,0,1,41.794,26.993Z" transform="translate(1.738 -4.661)" fill="#eb5b26"/>
          <path id="Tracé_807916" data-name="Tracé 807916" d="M52.572,10.785h3.675v2.5a8.9,8.9,0,0,1,.856-1.079,5.578,5.578,0,0,1,1.085-.9,5.49,5.49,0,0,1,1.352-.629,5.625,5.625,0,0,1,1.667-.228,5.3,5.3,0,0,1,4.18,1.656,6.473,6.473,0,0,1,1.473,4.461V26.7H63.18V17.676A4.224,4.224,0,0,0,62.3,14.8,3.139,3.139,0,0,0,59.8,13.8a3.384,3.384,0,0,0-2.569,1.037,4.043,4.043,0,0,0-.986,2.9v8.959H52.572Z" transform="translate(3.573 -4.695)" fill="#515d71"/>
          <path id="Tracé_807917" data-name="Tracé 807917" d="M70.626,5.435h.482a1.733,1.733,0,0,1,1.733,1.733h0A1.733,1.733,0,0,1,71.108,8.9h-.482a1.733,1.733,0,0,1-1.733-1.733h0A1.733,1.733,0,0,1,70.626,5.435Zm.151,5.908h.211a1.733,1.733,0,0,1,1.733,1.733v12.44a1.733,1.733,0,0,1-1.733,1.733h-.211a1.733,1.733,0,0,1-1.733-1.733V13.066a1.733,1.733,0,0,1,1.733-1.722Z" transform="translate(5.394 -5.254)" fill="#515d71"/>
          <path id="Tracé_807918" data-name="Tracé 807918" d="M81.54,27.37a6.753,6.753,0,0,1-1.845-.241,3.779,3.779,0,0,1-1.474-.778,3.473,3.473,0,0,1-.957-1.432A6.336,6.336,0,0,1,76.93,22.7V14.321H74.91V11.19h2.019V6.818h3.677V11.19h4.28v3.135H80.608V22.13a1.971,1.971,0,0,0,.512,1.52,2.068,2.068,0,0,0,1.445.467,4.992,4.992,0,0,0,2.261-.542v2.984a6.313,6.313,0,0,1-1.477.6,7,7,0,0,1-1.81.21Z" transform="translate(6.066 -5.099)" fill="#515d71"/>
          <path id="Tracé_807919" data-name="Tracé 807919" d="M94,27.056a8.486,8.486,0,0,1-3.209-.6,7.7,7.7,0,0,1-4.325-4.3,8.67,8.67,0,0,1-.632-3.365v-.061a9,9,0,0,1,.572-3.224,8.1,8.1,0,0,1,1.616-2.632A7.6,7.6,0,0,1,90.481,11.1a7.448,7.448,0,0,1,3.135-.651,7.559,7.559,0,0,1,3.335.694,6.852,6.852,0,0,1,2.381,1.869,8.13,8.13,0,0,1,1.432,2.728,10.971,10.971,0,0,1,.482,3.27c0,.161,0,.326-.016.5s-.024.347-.046.528h-11.7a4.646,4.646,0,0,0,1.556,3,4.581,4.581,0,0,0,3.029,1.039,5.336,5.336,0,0,0,2.351-.482,7.639,7.639,0,0,0,1.95-1.412l2.139,1.89a8.811,8.811,0,0,1-2.728,2.171A8.177,8.177,0,0,1,94,27.056Zm3.616-9.435a6.252,6.252,0,0,0-.391-1.642,4.218,4.218,0,0,0-.814-1.326,3.876,3.876,0,0,0-1.223-.889,3.761,3.761,0,0,0-1.613-.333A3.676,3.676,0,0,0,90.8,14.595a5.24,5.24,0,0,0-1.344,3.026Z" transform="translate(7.285 -4.695)" fill="#515d71"/>
          <path id="Tracé_807920" data-name="Tracé 807920" d="M109.109,27.6a7.179,7.179,0,0,1-2.742-.542,6.874,6.874,0,0,1-2.351-1.6,8.086,8.086,0,0,1-1.657-2.592,9.2,9.2,0,0,1-.633-3.526v-.061a9.414,9.414,0,0,1,.617-3.526,7.885,7.885,0,0,1,1.638-2.592,6.827,6.827,0,0,1,2.361-1.6,7.253,7.253,0,0,1,2.751-.542,5.827,5.827,0,0,1,3.247.845,8.886,8.886,0,0,1,2.165,1.953V5.272h3.677v22h-3.677l.03-2.651a8.249,8.249,0,0,1-2.184,2.112,5.715,5.715,0,0,1-3.243.871Zm.858-3.165a4.392,4.392,0,0,0,3.214-1.4,5.17,5.17,0,0,0,1.006-1.613,5.526,5.526,0,0,0,.376-2.08v-.061a5.644,5.644,0,0,0-.376-2.094,4.953,4.953,0,0,0-1.006-1.613,4.432,4.432,0,0,0-1.472-1.025,4.371,4.371,0,0,0-1.742-.361,4.506,4.506,0,0,0-1.757.346,4.28,4.28,0,0,0-1.456,1.009,4.754,4.754,0,0,0-.99,1.613,5.955,5.955,0,0,0-.36,2.125v.06a5.86,5.86,0,0,0,.36,2.094,4.751,4.751,0,0,0,.99,1.613,4.462,4.462,0,0,0,1.456,1.025A4.335,4.335,0,0,0,109.968,24.439Z" transform="translate(9.058 -5.272)" fill="#515d71"/>
        </g>
      </g>
      <g id="Calque_7" data-name="Calque 7" transform="translate(218.171 18.679)">
        <ellipse id="Ellipse_69" data-name="Ellipse 69" cx="2.171" cy="2.171" rx="2.171" ry="2.171" fill="#eb5b26"/>
      </g>
    </g>
  </g>
</svg>
