<svg xmlns="http://www.w3.org/2000/svg" xmlns:xlink="http://www.w3.org/1999/xlink" version="1.1" width="2510" height="2000">
    <g transform="scale(11.406844106463879) translate(10, 10)">
        <g id="SvgjsG2114" featureKey="symbol1" fill="#20622b" transform="matrix(1.136714870435388,0,0,1.136714870435388,43.16470961354539,-3.6436484911851537)">
            <path xmlns="http://www.w3.org/2000/svg" fill-rule="evenodd" clip-rule="evenodd" 
            d="
            
            M15.835,70.675l0.463,0.51l0.186,0.139l0.184,0.092l0.094-0.139c0.186-0.183,0.355-0.494,0.51-0.925l0.324-1.113         
            c0.215-0.768,0.387-1.312,0.51-1.617c0.186-0.434,0.355-0.635,0.51-0.603c0.09,0.06,0.186,0.292,0.277,0.692         
            c0.061,0.587,0.092,1.173,0.092,1.762c0,0.337-0.045,0.738-0.139,1.202c-0.123,0.679-0.311,1.218-0.555,1.621         
            c-0.248,0.4-0.557,0.681-0.928,0.833c-0.186,0.062-0.416,0.107-0.695,0.139c-0.246,0-0.461-0.016-0.648-0.047         
            c-0.152-0.03-0.277-0.074-0.365-0.14c-0.158-0.093-0.268-0.152-0.326-0.185l-0.418-0.37c-0.154-0.123-0.357-0.355-0.602-0.694         
            c-0.834-1.203-1.418-2.038-1.76-2.5c-0.307-0.399-0.557-0.692-0.74-0.879c-0.186-0.155-0.373-0.264-0.555-0.324         
            c-0.186-0.031-0.387,0.03-0.602,0.186l-0.51,0.37c-0.34,0.276-0.541,0.384-0.605,0.324c-0.152-0.065-0.152-0.31,0-0.744         
            c0.094-0.308,0.217-0.554,0.371-0.742c0.309-0.396,0.695-0.661,1.16-0.782c0.523-0.091,1.064,0.048,1.619,0.415         
            c0.371,0.218,0.771,0.538,1.205,0.974C14.198,68.471,14.849,69.317,15.835,70.675z M15.003,74.331         
            c-0.094,0.496-0.357,0.881-0.787,1.159c-0.34,0.277-0.682,0.479-1.018,0.603c-0.342,0.123-0.727,0.183-1.16,0.183         
            c-0.34-0.029-0.693-0.091-1.064-0.183c-0.402-0.154-0.928-0.416-1.574-0.789l-1.018-0.646c-0.279-0.123-0.479-0.169-0.604-0.14         
            c-0.184,0.06-0.371,0.199-0.555,0.417l-0.51,0.508c-0.248,0.343-0.432,0.48-0.555,0.415c-0.154-0.06-0.186-0.304-0.092-0.738         
            c0.029-0.217,0.107-0.479,0.23-0.788c0.186-0.431,0.449-0.785,0.787-1.063c0.279-0.187,0.586-0.279,0.926-0.279         
            c0.246,0,0.539,0.046,0.881,0.141c0.307,0.062,0.785,0.264,1.436,0.6c0.461,0.218,0.863,0.373,1.203,0.466l0.508,0.09         
            c0.154,0,0.326-0.028,0.51-0.09c0.123-0.033,0.277-0.093,0.463-0.187l0.092-0.139c0.063,0,0.063-0.077,0-0.229         
            c-0.061-0.158-0.137-0.312-0.23-0.464c-0.309-0.56-0.801-1.159-1.482-1.808c-0.615-0.587-1.02-0.988-1.203-1.202         
            c-0.307-0.277-0.434-0.482-0.369-0.604c0.029-0.156,0.277-0.17,0.74-0.047c0.492,0.121,1.064,0.373,1.715,0.741         
            c0.955,0.647,1.664,1.28,2.127,1.897c0.186,0.277,0.355,0.571,0.51,0.879C15.062,73.53,15.095,73.963,15.003,74.331z"/></g>
    </g>
</svg>