<svg width="276" height="380" xmlns="http://www.w3.org/2000/svg" xmlns:xlink="http://www.w3.org/1999/xlink" overflow="hidden"><defs><clipPath id="clip0"><rect x="471" y="160" width="276" height="380"/></clipPath></defs><g clip-path="url(#clip0)" transform="translate(-471 -160)"><path d="M234.481 66.6757C234.336 66.5357 233.323 65.9615 231.456 64.9533 230.588 64.5145 230.172 64.1644 230.172 63.8703 230.172 63.5902 230.592 63.2868 231.456 63.0068 233.323 62.5727 234.985 62.7174 236.422 63.4269 237.865 64.3044 238.873 65.3033 239.456 66.461 240.166 67.908 240.53 69.4157 240.53 71.0075 240.675 73.7428 240.166 76.9217 239.018 80.5112 238.444 82.5324 237.221 85.7719 235.344 90.2437L234.042 95.2057 233.822 100.816C233.976 103.561 234.481 107.744 235.344 113.359L237.286 123.946C237.431 124.959 237.505 126.326 237.505 128.058 237.804 137.562 236.282 147.145 232.973 156.803 230.373 164.719 227.063 171.787 223.026 177.976 221.868 179.559 220.79 181.001 219.781 182.289 226.125 188.199 231.745 195.476 236.637 204.121 242.117 213.629 246.356 224.291 249.39 236.11 250.977 242.453 252.134 248.867 252.844 255.346 254.431 252.326 256.153 249.511 258.03 246.916 264.938 236.404 272.874 227.68 281.808 220.762 288.581 215.73 294.551 212.047 299.751 209.75 304.055 207.883 307.948 206.646 311.402 206.063 314.147 205.783 316.462 205.862 318.329 206.287 321.065 206.861 323.445 208.084 325.448 209.965 328.347 213.27 330.424 217.167 331.721 221.635 332.44 223.352 332.879 225.229 333.014 227.245L334.317 232.651C335.036 238.7 335.311 245.758 335.176 253.829 334.746 264.635 333.519 276.16 331.502 288.408 331.502 288.548 331.502 288.698 331.502 288.828 332.37 287.83 333.444 286.826 334.746 285.818 335.894 284.66 337.846 282.714 340.572 279.974L346.626 273.065C351.676 266.563 355.485 260.728 358.085 255.561 358.23 255.126 358.87 253.549 360.027 250.799 360.611 248.643 361.04 246.986 361.32 245.828 361.904 242.374 362.198 239.209 362.198 236.32 361.904 231.134 360.896 225.593 359.164 219.688 356.858 212.196 355.7 208.378 355.7 208.224 354.832 205.064 354.697 203.407 355.28 203.267 355.845 203.117 357.068 204.191 358.954 206.506 360.961 209.237 362.982 212.84 364.999 217.303 368.033 223.497 369.905 229.621 370.614 235.671 371.053 239.704 370.913 243.672 370.185 247.569 370.185 248.288 369.755 250.37 368.892 253.829 367.589 256.844 366.721 258.721 366.292 259.444 363.276 265.937 358.804 272.346 352.909 278.685L349.436 282.354C349.006 282.919 347.783 284.007 345.772 285.584 345.188 286.168 342.882 287.974 338.863 290.99 335.68 292.861 332.809 294.528 330.218 295.97 329.196 301.73 327.912 306.776 326.325 311.103 324.449 316.57 323.151 319.151 322.432 318.875 321.849 318.726 322.068 315.846 323.081 310.221 323.646 304.461 324.304 296.82 325.023 287.321 326.181 272.626 326.601 261.386 326.325 253.6 326.325 246.402 325.887 239.849 325.023 233.939 324.878 231.778 324.659 230.125 324.374 228.958 323.945 227.381 323.506 225.864 323.081 224.417 322.787 223.418 322.143 221.905 321.13 219.889 320.71 219.165 320.346 218.516 320.056 217.942L318.973 216.659C318.255 215.916 317.396 215.492 316.383 215.352 315.225 215.072 313.942 215.002 312.49 215.137 310.049 215.426 307.019 216.365 303.42 217.947 298.659 219.959 293.118 223.124 286.784 227.465 278.424 233.514 270.563 241.277 263.225 250.795 260.625 253.82 258.039 257.278 255.439 261.176 254.72 262.334 254.146 263.328 253.707 264.206 253.992 271.109 253.927 277.023 253.497 281.929 253.059 286.523 252.424 288.824 251.565 288.824 251.117 288.824 250.552 286.607 249.824 282.135 248.956 275.226 248.101 269.233 247.233 264.206 245.357 253.82 243.34 245.184 241.17 238.271 238.005 227.306 233.902 217.452 228.86 208.663 222.942 198.706 216.262 190.645 208.756 184.441 203.141 179.264 195.929 174.578 187.139 170.391 183.12 168.528 178.289 166.647 172.669 164.789 172.669 164.934 172.669 165.14 172.669 165.429 171.941 167.03 171.226 167.81 170.498 167.81 170.069 167.669 169.495 166.876 168.785 165.429 167.763 162.409 167.128 160.518 166.834 159.818 165.686 157.503 164.089 155.491 162.073 153.759 159.631 151.738 156.896 150.529 153.867 150.09 150.693 149.236 147.593 149.381 144.568 150.529 141.968 151.393 139.956 152.676 138.514 154.417 137.646 155.421 136.572 157.013 135.27 159.179 134.411 160.607 133.776 161.321 133.328 161.321 132.754 161.321 132.259 160.397 131.816 158.52 131.68 158.24 131.606 157.881 131.606 157.428 129.155 157.886 126.555 158.726 123.82 160.033 120.365 161.765 117.275 164.145 114.521 167.156 111.805 169.905 109.779 173.075 108.476 176.674 107.617 179.699 107.473 182.518 108.047 185.113 109.489 184.53 111.011 184.11 112.589 183.816 114.605 183.816 115.623 184.18 115.623 184.889 115.758 185.319 115.184 186.122 113.872 187.27 112.015 189.151 110.638 190.509 109.779 191.373 108.047 193.828 107.118 196.05 106.959 198.071 106.385 200.802 106.749 203.841 108.042 207.146 109.191 210.315 111.006 212.845 113.448 214.712 115.464 216.444 117.695 217.592 120.151 218.166 121.29 218.456 123.25 218.834 125.986 219.254 127.708 219.254 128.576 219.543 128.576 220.118 128.721 220.248 128.721 220.407 128.576 220.547 131.176 222.568 133.837 225.084 136.572 228.114 141.469 234.014 145.016 240.003 147.159 246.052 148.601 250.953 149.035 255.407 148.452 259.444 147.593 264.635 145.441 269.177 141.968 273.065 139.662 275.371 137.081 276.888 134.192 277.598 131.302 278.316 128.511 278.176 125.757 277.177 123.175 276.305 120.935 274.937 119.063 273.065 117.037 271.044 115.754 268.668 115.179 265.937 114.741 263.333 114.741 261.036 115.179 259.02 115.464 257.437 116.038 255.565 116.902 253.399L120.575 245.193C121.733 242.733 122.153 240.796 121.868 239.358 121.868 238.486 121.733 237.902 121.43 237.627L120.146 236.11C120.001 235.979 119.124 235.395 117.546 234.387 116.678 233.953 116.323 233.524 116.472 233.076 116.472 232.795 116.902 232.655 117.775 232.655 118.914 232.511 120.281 232.59 121.868 232.87 122.737 233.314 123.666 233.878 124.688 234.611 125.836 235.62 126.63 236.768 127.059 238.056 127.778 240.507 127.708 243.606 126.84 247.35 126.266 249.231 125.397 252.176 124.249 256.205L123.175 260.546C123.031 261.4 123.031 262.558 123.175 263.981 123.894 266.143 125.691 267.66 128.572 268.523 129.874 268.967 131.097 268.967 132.254 268.523 133.393 268.393 134.406 267.8 135.265 266.791 137.59 264.36 138.957 261.475 139.378 258.147 139.952 255.285 139.816 252.092 138.957 248.648 137.646 243.606 135.055 238.051 131.172 232.007 130.159 230.424 128.217 227.544 125.327 223.352 123.74 224.225 121.873 224.65 119.721 224.65 115.819 224.944 112.08 223.945 108.472 221.635 104.303 219.03 101.279 215.361 99.3927 210.614 97.5256 205.428 97.3155 200.611 98.7439 196.125 99.4721 193.394 100.77 191.013 102.646 189.006 102.361 188.712 102.147 188.423 101.988 188.143 99.8268 184.245 99.2527 179.783 100.275 174.732 101.279 169.705 103.795 165.009 107.832 160.677 111.426 156.803 115.684 153.979 120.575 152.256 124.907 150.534 129.146 149.96 133.319 150.534 134.761 147.22 137.431 144.615 141.324 142.752 145.782 140.596 150.478 139.938 155.374 140.792 160.7 141.819 164.948 144.05 168.118 147.504 170.998 150.809 172.659 154.347 173.084 158.091 173.229 158.964 173.229 159.823 173.084 160.677 178.135 161.261 183.606 162.493 189.506 164.369 190.654 164.649 191.746 165.088 192.75 165.662 192.904 163.627 193.049 162.413 193.179 161.979L194.701 158.091C195.285 156.504 196.498 153.909 198.375 150.319 199.952 147.14 201.035 144.764 201.61 143.191 201.908 141.319 202.048 140.152 202.048 139.718 202.184 138.855 202.184 138.136 202.048 137.562 201.754 136.978 201.39 136.633 200.956 136.488 200.545 136.059 199.887 135.681 199.033 135.405 197.138 135.27 195.065 135.27 192.75 135.405L186.696 136.269C182.093 137.282 179.138 137.935 177.836 138.215 175.385 138.649 174.097 138.649 173.943 138.215 173.523 137.641 174.237 136.638 176.114 135.2 178.275 133.323 181.08 131.592 184.548 130.009 186.7 129.136 188.932 128.422 191.242 127.839 194.416 127.129 197.371 126.905 200.092 127.199 202.272 127.339 204.139 127.839 205.727 128.707 207.743 129.855 209.171 131.643 210.03 134.108 210.913 135.681 211.342 137.707 211.342 140.152 211.342 141.459 211.048 143.341 210.474 145.777 209.755 147.789 208.313 150.739 206.151 154.637L202.268 161.55 200.956 164.565C200.681 165.149 200.317 166.166 199.887 167.609L199.668 168.682C205.003 171.278 209.816 174.368 214.147 177.971 214.577 178.107 215.016 178.322 215.44 178.611 216.024 177.323 216.598 176.025 217.163 174.727 220.482 168.099 223.007 161.256 224.739 154.207 227.32 145.273 228.478 136.698 228.184 128.483 228.184 126.611 228.184 125.467 228.184 125.019L226.461 114.652C225.602 108.887 225.238 104.28 225.378 100.816L226.036 93.9127 226.466 92.1715 232.739 78.1306C234.317 74.9705 235.19 72.5105 235.33 70.7974 235.638 68.7669 235.349 67.3945 234.481 66.6757ZM363.925 201.525C365.092 200.662 366.24 200.018 367.389 199.588 369.839 198.58 371.991 198.715 373.863 200.018 375.03 200.611 376.033 201.68 376.897 203.267 377.191 203.976 377.555 205.124 377.98 206.711 378.115 207.729 378.409 209.895 378.839 213.195 379.124 217.238 379.278 219.389 379.278 219.688L379.707 222.059 380.136 222.923 380.136 223.138 380.374 223.138 380.566 222.923 381.023 222.727C381.724 222.134 382.811 220.85 384.258 218.839 385.542 216.673 387.339 213.559 389.645 209.531 391.671 206.217 393.183 204.041 394.196 203.038 395.489 201.455 396.423 200.802 396.997 201.11 397.436 201.53 397.496 202.678 397.216 204.574 397.081 206.716 396.567 209.167 395.713 211.907 394.7 216.234 393.332 220.048 391.601 223.352 390.158 225.957 388.501 228.039 386.634 229.626L384.473 231.358C383.325 231.792 382.158 232.151 381.028 232.436 378.722 232.585 376.467 231.787 374.316 230.055 373.457 229.346 372.659 228.464 371.935 227.469 371.506 226.443 371.216 225.518 371.067 224.65 370.502 223.063 370.199 221.705 370.199 220.547 370.199 218.685 370.199 216.295 370.199 213.419L370.427 207.804 370.199 206.063C370.199 205.783 370.199 205.568 370.199 205.423 369.914 204.84 369.33 204.569 368.476 204.569 367.893 204.569 366.889 204.639 365.451 204.765 363.584 204.919 362.487 204.84 362.217 204.569 361.773 203.841 362.338 202.828 363.925 201.525ZM406.939 194.827 408.452 194.827C409.171 194.967 409.735 195.196 410.183 195.476 411.332 196.181 412.051 197.357 412.345 198.939 412.639 199.943 412.699 200.961 412.555 201.974 412.125 205.264 410.968 209.237 409.11 213.849L404.125 223.581 404.125 224.001 404.363 226.167 404.563 226.825 405.002 227.031 406.944 226.601C409.385 226.167 412.349 224.949 415.804 222.918 417.526 221.915 419.613 220.692 422.077 219.259 423.655 218.395 424.658 217.956 425.102 217.956 425.811 218.4 425.741 219.623 424.873 221.635 423.851 223.66 422.147 225.738 419.697 227.894 416.242 231.064 412.779 233.388 409.311 234.807 408.162 235.246 406.72 235.54 404.997 235.676 402.836 235.82 400.885 235.321 399.163 234.172 398.14 233.309 397.431 232.441 396.992 231.582 396.283 230.714 395.844 229.771 395.708 228.762 395.134 227.474 394.84 225.873 394.84 224.001L394.84 223.348 395.05 222.484C395.05 221.91 395.195 221.331 395.489 220.757 395.624 220.043 395.844 219.539 396.138 219.254L401.534 209.96C403.849 205.778 405.362 202.753 406.076 200.877L406.505 199.588 406.505 199.36 406.944 199.36 406.944 199.145C406.36 199.014 406.006 198.855 405.861 198.715 404.857 198.715 404.129 198.641 403.709 198.505 403.116 198.356 402.841 198.202 402.841 198.067 402.696 197.068 403.406 196.12 405.002 195.261 405.422 195.266 406.071 195.117 406.939 194.827ZM422.072 228.762C426.675 225.738 429.765 223.586 431.352 222.279L432.22 221.63 432.879 220.757C433.014 220.174 432.935 219.539 432.65 218.829L431.357 217.303C431.081 216.873 430.927 216.514 430.927 216.229 430.927 215.926 431.282 215.73 432.01 215.58L433.084 215.58C433.962 215.87 434.517 216.08 434.816 216.229 436.683 216.943 437.841 218.166 438.27 219.898L438.27 221.63C438.27 221.915 438.205 222.489 438.051 223.348 437.63 224.221 437.047 225.304 436.328 226.597 434.312 229.192 431.142 232.212 426.81 235.666 421.624 239.699 417.741 242.654 415.15 244.526L412.979 246.486 412.979 246.682C412.279 248.563 411.897 249.931 411.897 250.795 412.051 251.658 412.555 252.386 413.428 252.961 414.137 253.544 415.435 254.179 417.311 254.907 418.315 255.197 419.753 255.612 421.624 256.195 424.953 256.914 427.249 257.428 428.542 257.712 430.129 258.287 430.923 258.781 430.923 259.22 430.923 259.93 430.064 260.532 428.332 260.952 426.6 261.526 424.15 261.886 420.985 262.03 419.244 262.17 417.521 262.091 415.799 261.811 413.358 261.671 411.187 261.022 409.306 259.874L407.583 258.781C406.715 258.053 406.141 257.498 405.852 257.068 404.703 255.906 403.91 254.403 403.471 252.522L403.261 249.927 403.471 247.555C403.471 246.972 403.625 246.253 403.91 245.38L404.358 243.658 404.559 243.434 405.642 241.062 406.935 239.545C407.509 238.822 408.312 238.117 409.306 237.384 411.182 235.956 413.428 234.369 416.009 232.632 417.461 231.787 419.472 230.485 422.072 228.762ZM416.448 264.85C419.174 265.564 421.26 266.073 422.712 266.376 424.588 266.941 426.395 267.081 428.117 266.787L430.279 266.563 432.65 265.933C434.246 265.494 435.259 265.069 435.675 264.635L436.543 263.977 436.982 262.903C437.556 261.311 437.985 260.541 438.275 260.541 438.559 260.541 438.713 261.395 438.713 263.127L438.494 264.635C438.349 265.498 438.055 266.138 437.635 266.563 437.052 267.59 435.829 268.519 433.962 269.382L428.766 271.114C427.179 271.534 425.027 271.688 422.283 271.534 420.406 271.403 418.025 271.044 415.155 270.465 411.845 269.891 409.311 269.382 407.588 268.957L399.802 268.514C396.208 268.957 393.538 269.457 391.815 270.031L388.123 271.529C386.41 272.556 385.178 273.345 384.468 273.929 382.461 275.366 380.066 277.588 377.331 280.618 374.46 283.367 369.844 288.903 363.5 297.268 360.489 301.436 358.174 304.611 356.596 306.776 353.716 310.52 351.107 313.769 348.81 316.49 342.747 323.697 336.856 329.532 331.077 333.995 327.058 336.875 323.235 338.831 319.627 339.848 316.892 340.413 314.45 340.553 312.28 340.264 309.974 339.848 307.822 338.961 305.805 337.673 305.661 337.533 305.507 337.384 305.376 337.243 302.487 335.222 300.545 332.333 299.532 328.594 298.958 325.989 298.664 323.254 298.664 320.388 298.664 317.783 298.738 315.253 298.874 312.821L298.874 306.548C298.589 303.364 298.015 299.336 297.151 294.444 296.866 292.147 296.642 290.187 296.493 288.618 296.367 288.618 296.292 288.684 296.292 288.814 294.561 294.864 292.829 299.845 291.097 303.733L289.165 307.845C287.998 309.568 287.213 310.861 286.784 311.743 285.482 314.04 284.613 315.403 284.184 315.837L280.949 319.748C272.015 330.4 260.691 338.77 247.014 344.81 246.44 345.249 244.843 345.893 242.253 346.747L237.921 348.255C233.762 349.282 230.653 349.926 228.641 350.215L211.146 352.153C199.761 352.601 189.52 351.793 180.441 349.781 177.141 349.347 174.116 348.764 171.371 348.05 172.09 348.339 172.883 348.829 173.752 349.557 175.628 350.706 179.232 352.867 184.562 356.041L198.813 364.48C199.112 364.76 201.848 366.572 207.038 369.872L215.692 376.159C219.567 379.17 222.395 382.335 224.109 385.649 225.402 388.245 226.06 390.765 226.06 393.225 226.204 396.086 225.476 398.757 223.899 401.221L222.816 402.948C222.097 403.812 221.667 404.321 221.513 404.451 220.654 405.32 219.716 406.178 218.713 407.051 216.542 408.764 214.091 409.931 211.365 410.515 207.188 411.089 202.137 410.636 196.232 409.222L183.05 404.671C178.298 402.948 173.971 401.072 170.087 399.06 159.001 393.874 150.716 390.476 145.236 388.898L139.191 387.39C136.591 386.947 134.588 386.587 133.137 386.312L120.818 385.005C119.376 384.87 117.499 384.716 115.203 384.571 111.595 384.44 109.653 384.356 109.359 384.356L98.1277 384.356C89.2028 384.8 82.6304 385.229 78.4527 385.649 68.5148 386.816 59.2911 389.043 50.791 392.362 47.052 393.939 44.5174 394.794 43.2337 394.948 41.3666 395.652 40.4237 395.89 40.4237 395.596 40.1296 395.89 39.6955 395.736 39.1307 395.162 38.6919 394.868 38.2624 394.219 37.8283 393.225 37.1188 391.624 36.9601 390.056 37.3989 388.459 37.973 386.592 39.1307 384.94 40.8624 383.502 42.5755 382.046 46.2491 379.964 51.8739 377.224 54.0258 376.075 55.6922 374.988 56.8405 373.984 57.5594 373.41 57.9981 372.911 58.1522 372.472L58.1522 371.823 57.9235 370.959 57.4847 369.872 56.1917 367.935C55.4728 366.922 53.9511 366.053 51.6592 365.339 48.9145 364.037 45.3856 362.819 41.0632 361.666 37.1608 360.662 34.7289 359.934 33.7159 359.495 31.6994 358.776 30.6912 358.211 30.6912 357.773 30.6912 357.054 31.7041 356.489 33.7159 356.041 35.8865 355.476 38.6125 355.187 41.9314 355.187 46.2445 355.317 50.5016 356.041 54.6746 357.329 57.8394 358.356 60.3741 359.719 62.2412 361.451 63.1095 362.315 64.1831 363.673 65.4761 365.554 65.9055 366.282 66.2696 367.001 66.559 367.711L67.2078 370.53C67.656 372.827 67.2825 374.992 66.1342 377.004 65.2567 378.461 64.0477 379.884 62.4606 381.341 60.2901 382.634 57.8394 383.773 55.1134 384.8L44.7368 388.674C42.7202 389.832 41.5626 391.064 41.2732 392.366 41.1378 392.94 41.0632 393.645 41.0632 394.518L41.0632 394.728C41.3572 394.439 41.782 394.089 42.3655 393.65 45.521 391.213 47.8269 389.692 49.2739 389.127 57.1953 384.496 66.6337 381.261 77.5798 379.394 81.3281 378.666 88.0918 377.728 97.8943 376.575L109.345 376.355C111.935 376.355 115.973 376.439 121.444 376.575L134.196 377.658C135.783 377.798 138.015 378.087 140.89 378.531L147.602 380.262C153.512 381.985 162.227 385.504 173.752 390.83 177.5 392.562 181.673 394.378 186.28 396.241L198.599 400.362C203.365 401.646 207.043 402.08 209.638 401.646 211.361 401.352 212.654 400.857 213.522 400.129 213.951 399.849 214.595 399.349 215.464 398.621L216.113 397.767C216.542 397.319 216.761 396.969 216.761 396.684 218.064 394.663 218.064 392.287 216.761 389.538 215.893 387.25 213.951 384.72 210.936 381.99 210.791 381.84 210.133 381.341 208.985 380.473L181.752 360.382C175.708 355.621 172.323 352.946 171.595 352.381 168.43 349.492 166.199 347.401 164.892 346.098 157.69 343.816 151.206 340.987 145.455 337.682L145.026 337.253C144.872 337.108 144.442 336.679 143.723 335.951 143.429 335.661 143.285 335.367 143.285 335.087 143.285 334.947 143.504 334.882 143.933 334.882 144.652 334.882 145.376 335.087 146.095 335.521 148.111 335.951 152.504 337.108 159.286 338.966 167.063 340.842 174.475 342.135 181.533 342.854 190.187 344.021 199.915 344.152 210.707 343.302L227.143 341.356 239.242 338.107C240.11 337.827 241.468 337.253 243.345 336.385 255.309 331.059 265.746 323.567 274.68 313.918L277.481 310.884C278.209 310.165 279.068 309.026 280.081 307.43L284.193 300.517C286.06 296.918 288.086 292.301 290.247 286.681 293.846 277.042 296.876 270.12 299.317 265.947 302.207 261.19 304.069 258.954 304.942 259.239 305.217 259.528 304.442 262.194 302.561 267.24 301.693 269.826 300.694 273.289 299.536 277.607 299.821 279.208 300.246 280.996 300.82 283.012 301.268 285.024 302.132 288.488 303.43 293.394 304.442 298.005 305.297 302.099 306.02 305.712L306.459 320.182C306.604 322.778 306.958 324.878 307.542 326.461 308.251 328.333 309.12 329.63 310.133 330.34L310.562 330.573C312.588 331.871 314.81 332.072 317.256 331.208 319.716 330.634 322.516 329.196 325.709 326.9 327.002 326.022 328.435 324.799 330.004 323.212 330.881 322.348 332.244 321.055 334.116 319.324L341.893 310.893C345.212 306.576 349.977 300.227 356.172 291.891 362.497 283.81 367.552 278.055 371.296 274.591 377.485 267.963 383.684 263.995 389.883 262.702 392.483 261.988 395.783 261.629 399.811 261.629L404.573 261.844C405.74 261.844 407.233 262.124 409.124 262.707 410.109 262.983 412.555 263.701 416.448 264.85ZM191.686 62.1432C191.121 62.1432 190.547 62.5727 189.963 63.4222 188.231 64.7245 187.219 65.2987 186.938 65.1633 186.229 64.8786 186.07 63.7256 186.5 61.7091 187.083 60.2621 187.802 59.0438 188.67 58.0215 189.529 57.1766 190.547 56.5931 191.686 56.3084 193.137 55.8743 194.43 55.9396 195.579 56.5231 197.455 57.1066 199.472 58.3202 201.633 60.1967 203.509 62.2179 204.952 63.9403 205.965 65.3827 207.822 68.1274 210.432 72.2911 213.732 77.9252L215.464 80.5112C216.192 81.3748 216.757 82.0283 217.186 82.4531 217.77 83.1672 218.269 83.536 218.708 83.536L219.347 83.7507C220.085 83.9048 220.934 83.3213 221.947 82.0283 222.666 81.1554 223.534 79.8624 224.547 78.1306 224.977 76.9823 225.831 74.7558 227.147 71.4323 227.857 69.5604 228.431 68.5428 228.87 68.4028 229.729 68.4028 230.312 69.4157 230.592 71.4323 231.176 74.0276 231.176 76.917 230.592 80.0818 230.307 82.2337 229.589 84.2549 228.431 86.1313 227.409 87.8631 226.634 88.8714 226.06 89.1561 224.617 90.7432 223.18 91.6768 221.728 91.9662 219.711 92.5403 217.69 92.5403 215.692 91.9662 213.951 91.392 212.5 90.4491 211.361 89.1561 210.492 88.5913 209.419 87.5737 208.116 86.1313L205.745 82.4531C202.562 76.6976 200.34 72.5852 199.052 70.1439 197.455 67.5439 196.452 65.9615 196.017 65.3827 195.308 64.5098 194.43 63.5062 193.427 62.3486 192.993 62.0639 192.418 61.9985 191.686 62.1432ZM185.435 69.0563C185.58 68.7669 185.935 68.6269 186.504 68.6269 187.223 68.4728 188.091 68.5428 189.114 68.8416 191.695 69.5604 194.365 71.1475 197.1 73.6028 201.129 77.0477 204.083 80.6606 205.969 84.4089 206.679 86.1313 207.118 87.6391 207.253 88.9414 207.547 91.2426 207.188 93.3945 206.179 95.4157 205.176 97.5816 203.519 99.0986 201.203 99.9622L198.403 100.826 196.89 101.05 195.159 101.05C193.436 100.91 191.55 100.401 189.534 99.5328 188.675 98.9586 187.447 98.0857 185.86 96.9374 185.001 96.508 182.989 94.9349 179.815 92.1762 175.778 88.876 172.757 86.8502 170.746 86.136 169.579 85.7019 168.65 85.5525 167.922 85.7019 167.501 85.8466 166.699 86.3414 165.55 87.2003 163.963 88.3672 162.95 88.8714 162.526 88.7267 161.816 88.4373 161.816 87.1303 162.526 84.8383 163.403 83.0972 164.402 81.8836 165.55 81.1601 167.282 79.7224 169.369 79.1389 171.824 79.4376 173.976 79.727 176.3 80.5112 178.742 81.8089 180.035 82.5324 182.042 83.7554 184.796 85.4872L190.85 89.5902C192.134 90.4538 193.147 91.0373 193.866 91.322 194.869 91.7561 195.523 91.9708 195.807 91.9708L196.027 91.9708 197.548 91.532C197.815 91.532 198.048 91.3967 198.188 91.0886 198.333 91.0886 198.407 90.8085 198.407 90.2437 198.407 89.3662 198.263 88.5119 197.969 87.6391 197.1 84.899 195.317 81.7389 192.563 78.1306 191.844 77.2671 190.122 75.1665 187.377 71.8664 185.935 70.4147 185.277 69.4904 185.435 69.0563ZM178.074 94.7715C182.112 95.9292 185.706 97.8757 188.885 100.625 191.326 102.628 193.133 104.653 194.29 106.656 196.157 109.835 196.942 113.074 196.662 116.388 196.367 117.826 195.793 119.483 194.93 121.35 194.356 122.228 193.917 122.858 193.646 123.306 192.927 124.314 192.185 125.019 191.476 125.472 190.911 125.892 189.524 126.546 187.363 127.4L183.699 128.702C178.364 129.426 174.83 130 173.103 130.425L170.951 131.508C170.368 131.942 170.073 132.441 170.073 133.015 170.073 133.599 169.999 134.248 169.863 134.962 169.863 135.536 169.719 135.905 169.425 136.049 168.421 136.479 167.408 135.755 166.409 133.884 165.826 132.436 165.751 130.859 166.19 129.122 166.619 128.119 167.263 127.185 168.132 126.312 168.706 125.729 169.499 125.155 170.503 124.59 172.244 123.582 175.908 122.139 181.524 120.258 183.559 119.693 185.062 119.04 186.066 118.33L186.934 116.804C187.219 116.22 187.363 115.665 187.363 115.081 187.802 112.775 186.434 110.026 183.26 106.866 180.954 104.569 178.294 102.548 175.264 100.807 173.812 99.8175 171.81 98.6412 169.21 97.3529 167.632 96.6434 166.839 95.9852 166.839 95.4017 166.545 94.5475 167.548 94.048 169.863 93.9033 172.323 93.4739 175.059 93.7633 178.074 94.7715ZM79.9604 229.416C80.3992 228.114 80.9827 227.026 81.6829 226.167 83.0039 224.426 84.5816 223.502 86.4441 223.348 87.7557 222.914 89.1141 222.914 90.5471 223.348 91.5601 223.796 92.643 224.421 93.8006 225.304 95.5137 226.597 96.9654 228.398 98.1231 230.709 99.7101 233.304 101.577 237.398 103.739 243.023 104.607 245.753 105.326 247.63 105.9 248.643L106.119 249.077C106.404 249.357 106.404 249.506 106.119 249.506L106.119 249.735 106.339 249.941C106.483 249.941 106.768 249.941 107.197 249.941L107.417 249.077 109.359 246.262C112.533 240.647 114.619 238.047 115.642 238.481 117.065 239.064 116.925 242.449 115.203 248.643L114.129 252.531 113.471 254.039C111.445 257.927 108.929 259.738 105.904 259.44 104.037 259.309 102.45 258.567 101.153 257.278L100.07 256.2 98.3471 253.824 97.9083 252.737C96.9048 250.874 95.9665 248.643 95.1076 246.048 92.9371 240.129 91.4994 236.315 90.7759 234.602 90.0477 232.996 89.3242 231.783 88.6146 230.914L87.7557 229.827C87.7557 229.696 87.5364 229.621 87.0976 229.621 86.6588 229.341 85.9493 229.5 84.927 230.055 84.3622 230.345 83.5593 230.779 82.5464 231.353 80.978 232.361 80.0304 232.791 79.7457 232.646 79.1669 232.077 79.2509 230.984 79.9604 229.416ZM162.087 291.424C162.381 291.568 162.297 292.091 161.877 292.95 161.008 294.098 160.145 295.186 159.286 296.19 156.667 298.785 152.359 301.301 146.305 303.747 145.156 304.181 142.057 305.329 137.034 307.201 132.987 308.644 129.748 309.941 127.297 311.108 123.414 312.966 120.449 314.996 118.438 317.139 117.289 318.441 116.631 319.664 116.496 320.822 116.057 322.278 116.057 323.777 116.496 325.354 117.061 328.389 118.802 331.623 121.691 335.087 123.834 337.967 126.494 340.842 129.687 343.741 134.28 348.05 139.471 352.293 145.231 356.484 146.235 357.194 150.053 359.864 156.672 364.476 159.58 366.338 160.929 367.501 160.803 367.93 160.649 368.784 158.852 368.719 155.398 367.706 152.653 366.996 150.053 366.049 147.612 364.891 145.03 365.185 140.899 365.185 135.284 364.891 129.094 364.611 123.479 364.028 118.438 363.187 115.702 362.595 112.383 361.661 108.49 360.368L103.528 358.202C101.367 357.045 99.5514 355.896 98.1231 354.739 94.9583 351.868 92.797 348.176 91.6301 343.736 90.9112 340.264 90.7712 336.599 91.21 332.702 91.21 332.412 91.3453 330.839 91.6301 327.945L92.713 323.408C93.7166 320.528 94.3794 318.231 94.6642 316.49L94.8836 314.758 94.8836 314.11 94.6642 312.593 93.796 311.748 92.2742 311.295 89.4735 311.099C88.8807 310.949 88.5446 310.721 88.3999 310.431 88.1012 310.002 88.3252 309.568 89.0394 309.143L90.1224 308.494 92.0642 307.845C92.6383 307.407 93.5859 307.262 94.8836 307.407L96.606 308.06C97.4742 308.349 98.0484 308.7 98.3378 309.138 99.1967 310.277 99.6308 310.945 99.6308 311.094 100.205 312.084 100.49 312.737 100.49 313.022L101.148 317.125C101.148 319.291 100.854 321.966 100.289 325.126L99.4067 333.341C99.2714 336.212 99.6355 338.887 100.49 341.342 101.367 344.213 102.66 346.313 104.392 347.606 104.821 348.171 105.97 348.974 107.846 349.987L111.94 352.143C115.403 353.301 118.284 354.164 120.594 354.739 124.193 355.896 129.09 357.129 135.279 358.422 131.111 355.822 127.293 353.007 123.829 349.987 120.09 346.808 116.991 343.732 114.531 340.688 110.792 336.217 108.35 331.763 107.193 327.296 106.483 324.426 106.553 321.461 107.412 318.437 107.851 317.134 108.486 315.697 109.354 314.11 110.376 312.826 111.24 311.813 111.945 311.099 114.68 308.2 118.438 305.763 123.194 303.738L119.941 303.299C117.653 302.874 114.05 302.006 109.144 300.699 103.08 298.836 96.6714 297.758 89.8983 297.464 85.2958 297.039 79.9604 297.123 73.9156 297.688 63.5482 298.402 58.2689 298.262 58.1522 297.263 57.9981 296.67 59.2211 295.807 61.8071 294.659 64.5425 293.501 68.2161 292.353 72.8279 291.214 79.601 289.613 85.3751 288.814 90.1224 288.814L95.299 289.039C96.4473 289.193 98.1884 289.398 100.485 289.697L106.11 290.56C107.267 290.84 109.065 291.358 111.515 292.077L121.444 294.663 130.742 295.742C136.796 296.04 142.048 295.812 146.524 295.102 148.256 294.808 151.057 294.444 154.95 294.024 155.668 293.72 156.401 293.431 157.111 293.151L160.565 291.629C161.293 291.228 161.802 291.144 162.087 291.424ZM81.6829 238.486C80.9827 236.628 80.7726 235.54 81.0434 235.246 81.6268 234.672 82.7751 235.031 84.5069 236.32 86.3741 237.902 88.2552 240.133 90.1224 243.027 91.1353 244.904 91.9895 246.766 92.713 248.648 93.8707 251.378 94.3794 253.974 94.2254 256.434 94.2254 258.296 93.6606 260.093 92.503 261.825 91.3453 263.701 89.5389 264.924 87.0976 265.498 85.6459 265.793 83.8534 265.937 81.6829 265.937L78.238 265.284 77.5891 264.85 76.9403 264.635C76.5109 264.49 76.0721 264.355 75.6473 264.21 76.5155 264.635 77.2997 265.209 78.0186 265.933 78.7374 266.507 79.7504 267.506 81.0434 268.957 82.3364 270.68 83.0692 272.342 83.1953 273.929 83.5033 275.94 83.1953 277.957 82.3364 279.969 81.6268 281.691 80.6139 283.218 79.3116 284.506 78.6021 285.379 77.7339 286.023 76.7209 286.453L74.3497 287.325 63.3195 289.048C58.2689 289.622 55.1134 290.332 53.8204 291.223L52.7375 291.419 52.5274 292.292C52.2333 292.726 52.2333 293.515 52.5274 294.673 52.6628 296.684 52.5928 297.772 52.308 297.912 51.5798 298.496 50.5016 297.996 49.0639 296.395 48.0509 294.817 47.4068 293.44 47.122 292.292 47.122 291.288 47.2667 290.201 47.5515 289.052 48.135 287.904 48.8538 286.826 49.722 285.822 50.7256 284.945 52.6675 283.867 55.5475 282.574 57.564 281.859 59.6599 281.211 61.8118 280.627L68.5148 279.348C70.1112 279.049 71.1148 278.835 71.5489 278.69L72.6226 278.256 72.6226 278.041C73.1874 277.747 73.6355 277.243 73.9156 276.515L74.3543 275.236C74.3543 274.358 73.6962 273.359 72.4125 272.202 70.662 270.61 67.8707 268.528 63.9777 265.942 58.0682 262.049 55.2628 259.668 55.5429 258.8 55.6876 258.235 56.7658 257.937 58.787 257.937 60.9482 258.067 63.6089 258.725 66.7831 259.892 69.5091 260.887 71.899 261.974 73.9109 263.132L64.1831 254.492C62.4606 252.886 60.9482 251.668 59.6506 250.804L56.8312 248.867C56.4017 248.867 55.8183 249.082 55.1087 249.511L53.8158 252.097C52.9475 253.974 52.1493 254.916 51.4351 254.916 50.861 254.916 50.4222 253.759 50.1235 251.453 49.9974 250.454 50.1235 249.082 50.5716 247.35 51.0104 246.192 51.6545 245.193 52.5228 244.334 53.3723 243.457 54.4552 242.799 55.7576 242.379L58.1475 242.379 60.08 242.799C61.2283 243.102 62.3859 243.536 63.5436 244.101 65.42 244.974 67.4179 246.192 69.5884 247.779 70.1719 248.353 72.0391 249.945 75.2039 252.541L79.3069 255.565 79.9558 256.209 79.9558 257.512 80.1751 256.209 80.3945 256.209 80.6139 256.438 81.2628 256.438C81.6829 256.578 82.201 256.644 82.7751 256.644 83.7881 256.774 84.5069 256.774 84.927 256.644L85.5852 256.644 85.7952 255.57C86.0893 254.422 86.024 252.821 85.5852 250.809 85.1558 248.797 84.717 247.135 84.2829 245.837 84.0075 245.109 83.1346 242.659 81.6829 238.486ZM79.7504 258.147 79.9604 257.932 79.7504 257.932 79.7504 258.147ZM73.9156 329.901 76.0768 332.282 76.945 332.93 77.8039 333.36 78.2427 332.711C79.1109 331.857 79.8997 330.405 80.6233 328.393L82.1357 323.198C83.1392 319.613 83.9421 317.074 84.5163 315.65 85.3845 313.624 86.1733 312.686 86.8969 312.835 87.317 313.115 87.7651 314.198 88.1899 316.065 88.4746 318.805 88.6193 321.541 88.6193 324.29 88.6193 325.863 88.4093 327.735 87.9705 329.901 87.3963 333.07 86.5188 335.586 85.3798 337.468 84.2222 339.335 82.7798 340.646 81.048 341.356 80.1798 341.645 79.1062 341.855 77.8039 342.005 76.6556 342.005 75.652 341.93 74.7791 341.785 74.0696 341.645 73.4861 341.44 73.0753 341.132 72.3378 340.698 71.8243 340.422 71.5536 340.268L69.6024 338.541C68.8836 337.967 67.936 336.884 66.7924 335.302 62.8994 329.686 60.1734 325.789 58.577 323.632 57.1439 321.77 55.977 320.402 55.1227 319.529 54.2545 318.805 53.3816 318.297 52.5321 318.017 51.6639 317.872 50.7256 318.157 49.722 318.885L47.3414 320.612C45.7544 321.9 44.8161 322.404 44.5174 322.124 43.8079 321.821 43.8079 320.677 44.5174 318.651 44.9562 317.214 45.5303 316.065 46.2491 315.188 47.6915 313.339 49.4933 312.102 51.6639 311.538 54.1052 311.113 56.6305 311.762 59.2211 313.475 60.9529 314.492 62.82 315.986 64.8459 318.021 66.2743 319.613 69.313 323.562 73.9156 329.901ZM70.0319 346.967C69.5931 349.282 68.3655 351.079 66.3583 352.377 64.7712 353.67 63.1748 354.613 61.6064 355.191 60.01 355.766 58.2129 356.046 56.1917 356.046 54.6046 355.91 52.9569 355.621 51.2251 355.191 49.3486 354.473 46.8933 353.25 43.8779 351.508L39.126 348.493C37.8237 347.919 36.8901 347.704 36.3066 347.84 35.4477 348.12 34.5748 348.768 33.7159 349.786L31.3353 352.157C30.1777 353.758 29.3188 354.398 28.7447 354.094 28.0258 353.814 27.8765 352.675 28.3152 350.65 28.4506 349.637 28.8147 348.414 29.3888 346.971 30.2571 344.959 31.4847 343.307 33.0624 342.009 34.3648 341.136 35.7978 340.707 37.3849 340.707 38.5332 340.707 39.9009 340.922 41.4973 341.365 42.9303 341.655 45.1615 342.598 48.2003 344.166 50.3522 345.184 52.2287 345.907 53.8158 346.341L56.187 346.761C56.9059 346.761 57.7087 346.631 58.5676 346.341 59.1418 346.187 59.8606 345.907 60.7288 345.468L61.1583 344.819C61.4524 344.819 61.4524 344.46 61.1583 343.75 60.8736 343.013 60.5188 342.294 60.0847 341.585 58.6423 338.971 56.3457 336.175 53.1669 333.145 50.2962 330.405 48.4057 328.533 47.5515 327.534 46.1184 326.241 45.5256 325.284 45.829 324.715 45.9644 323.987 47.122 323.921 49.2833 324.496 51.5798 325.06 54.2499 326.237 57.2886 327.954 61.7464 330.975 65.056 333.929 67.2172 336.809 68.0854 338.102 68.8743 339.475 69.5978 340.912 70.3073 343.228 70.4613 345.249 70.0319 346.967Z" fill="#20622B" fill-rule="evenodd" transform="matrix(1.00002 0 0 1 493.518 112.101)"/></g></svg>