
		<svg xmlns="http://www.w3.org/2000/svg" xmlns:xlink="http://www.w3.org/1999/xlink" version="1.1" width="3228.1368821292776" height="3228.1368821292776">
			<rect fill="#20622b" width="3228.1368821292776" height="3228.1368821292776"/>
			<g transform="scale(9) translate(80, 50)">
				<defs id="SvgjsDefs2112"></defs><g id="SvgjsG2113" featureKey="root" fill="#20622b"></g><g id="SvgjsG2114" featureKey="symbol1" fill="#ffffff" transform="matrix(1.136714870435388,0,0,1.136714870435388,43.16470961354539,-3.6436484911851537)"><path xmlns="http://www.w3.org/2000/svg" fill-rule="evenodd" clip-rule="evenodd" d="M50.233,14.284c-0.031-0.03-0.248-0.153-0.648-0.369  c-0.186-0.094-0.275-0.169-0.275-0.232c0-0.06,0.09-0.125,0.275-0.185c0.4-0.093,0.756-0.062,1.064,0.09  c0.309,0.188,0.525,0.402,0.65,0.65c0.152,0.31,0.23,0.633,0.23,0.974c0.031,0.586-0.078,1.267-0.324,2.036  c-0.123,0.433-0.385,1.127-0.787,2.085l-0.279,1.063l-0.047,1.202c0.033,0.588,0.141,1.484,0.326,2.687l0.416,2.268  c0.031,0.217,0.047,0.51,0.047,0.881c0.064,2.036-0.262,4.089-0.971,6.158c-0.557,1.696-1.266,3.21-2.131,4.536  c-0.248,0.339-0.479,0.648-0.695,0.924c1.359,1.266,2.563,2.825,3.611,4.677c1.174,2.037,2.082,4.321,2.732,6.853  c0.34,1.359,0.588,2.733,0.74,4.121c0.34-0.647,0.709-1.25,1.111-1.806c1.48-2.252,3.18-4.121,5.094-5.603  c1.451-1.078,2.73-1.867,3.844-2.359c0.922-0.4,1.756-0.665,2.496-0.79c0.588-0.06,1.084-0.043,1.484,0.048  c0.586,0.123,1.096,0.385,1.525,0.788c0.621,0.708,1.066,1.543,1.344,2.5c0.154,0.368,0.248,0.77,0.277,1.202l0.279,1.158  c0.154,1.296,0.213,2.808,0.184,4.537c-0.092,2.315-0.355,4.784-0.787,7.408c0,0.03,0,0.062,0,0.09  c0.186-0.214,0.416-0.429,0.695-0.645c0.246-0.248,0.664-0.665,1.248-1.252l1.297-1.48c1.082-1.393,1.898-2.643,2.455-3.75  c0.031-0.093,0.168-0.431,0.416-1.02c0.125-0.462,0.217-0.817,0.277-1.065c0.125-0.74,0.188-1.418,0.188-2.037  c-0.063-1.111-0.279-2.298-0.65-3.563c-0.494-1.605-0.742-2.423-0.742-2.456c-0.186-0.677-0.215-1.032-0.09-1.062  c0.121-0.032,0.383,0.198,0.787,0.694c0.43,0.585,0.863,1.357,1.295,2.313c0.65,1.327,1.051,2.639,1.203,3.935  c0.094,0.864,0.064,1.714-0.092,2.549c0,0.154-0.092,0.6-0.277,1.341c-0.279,0.646-0.465,1.048-0.557,1.203  c-0.646,1.391-1.604,2.764-2.867,4.122l-0.744,0.786c-0.092,0.121-0.354,0.354-0.785,0.692c-0.125,0.125-0.619,0.512-1.48,1.158  c-0.682,0.401-1.297,0.758-1.852,1.067c-0.219,1.234-0.494,2.315-0.834,3.242c-0.402,1.171-0.68,1.724-0.834,1.665  c-0.125-0.032-0.078-0.649,0.139-1.854c0.121-1.234,0.262-2.871,0.416-4.906c0.248-3.148,0.338-5.556,0.279-7.224  c0-1.542-0.094-2.946-0.279-4.212c-0.031-0.463-0.078-0.817-0.139-1.067c-0.092-0.338-0.186-0.663-0.277-0.973  c-0.063-0.214-0.201-0.538-0.418-0.97c-0.09-0.155-0.168-0.294-0.23-0.417l-0.232-0.275c-0.154-0.159-0.338-0.25-0.555-0.28  c-0.248-0.06-0.523-0.075-0.834-0.046c-0.523,0.062-1.172,0.263-1.943,0.602c-1.02,0.431-2.207,1.109-3.564,2.039  c-1.791,1.296-3.475,2.959-5.047,4.998c-0.557,0.648-1.111,1.389-1.668,2.224c-0.154,0.248-0.277,0.461-0.371,0.649  c0.061,1.479,0.047,2.746-0.045,3.797c-0.094,0.984-0.23,1.477-0.414,1.477c-0.096,0-0.217-0.475-0.373-1.433  c-0.186-1.48-0.369-2.764-0.555-3.841c-0.402-2.225-0.834-4.075-1.299-5.556c-0.678-2.349-1.557-4.46-2.637-6.343  c-1.268-2.133-2.699-3.86-4.307-5.189c-1.203-1.109-2.748-2.113-4.631-3.01c-0.861-0.399-1.896-0.802-3.1-1.2  c0,0.031,0,0.075,0,0.137c-0.156,0.343-0.309,0.51-0.465,0.51c-0.092-0.03-0.215-0.2-0.367-0.51  c-0.219-0.647-0.355-1.052-0.418-1.202c-0.246-0.496-0.588-0.927-1.02-1.298c-0.523-0.433-1.109-0.692-1.758-0.786  c-0.68-0.183-1.344-0.152-1.992,0.094c-0.557,0.185-0.988,0.46-1.297,0.833c-0.186,0.215-0.416,0.556-0.695,1.02  c-0.184,0.306-0.32,0.459-0.416,0.459c-0.123,0-0.229-0.198-0.324-0.6c-0.029-0.06-0.045-0.137-0.045-0.234  c-0.525,0.098-1.082,0.278-1.668,0.558c-0.74,0.371-1.402,0.881-1.992,1.526c-0.582,0.589-1.016,1.268-1.295,2.039  c-0.184,0.648-0.215,1.252-0.092,1.808c0.309-0.125,0.635-0.215,0.973-0.278c0.432,0,0.65,0.078,0.65,0.23  c0.029,0.092-0.094,0.264-0.375,0.51c-0.398,0.403-0.693,0.694-0.877,0.879c-0.371,0.526-0.57,1.002-0.604,1.435  c-0.123,0.585-0.045,1.236,0.232,1.944c0.246,0.679,0.635,1.221,1.158,1.621c0.432,0.371,0.91,0.617,1.436,0.74  c0.244,0.062,0.664,0.143,1.25,0.233c0.369,0,0.555,0.062,0.555,0.185c0.031,0.028,0.031,0.062,0,0.092  c0.557,0.433,1.127,0.972,1.713,1.621c1.049,1.264,1.809,2.547,2.268,3.843c0.309,1.05,0.402,2.004,0.277,2.869  c-0.184,1.112-0.645,2.085-1.389,2.918c-0.494,0.494-1.047,0.819-1.666,0.971c-0.619,0.154-1.217,0.124-1.807-0.09  c-0.553-0.187-1.033-0.48-1.434-0.881c-0.434-0.433-0.709-0.942-0.832-1.527c-0.094-0.558-0.094-1.05,0-1.482  c0.061-0.339,0.184-0.74,0.369-1.204l0.787-1.758c0.248-0.527,0.338-0.942,0.277-1.25c0-0.187-0.029-0.312-0.094-0.371l-0.275-0.325  c-0.031-0.028-0.219-0.153-0.557-0.369c-0.186-0.093-0.262-0.185-0.23-0.281c0-0.06,0.092-0.09,0.279-0.09  c0.244-0.031,0.537-0.014,0.877,0.046c0.186,0.095,0.385,0.216,0.604,0.373c0.246,0.216,0.416,0.462,0.508,0.738  c0.154,0.525,0.139,1.189-0.047,1.991c-0.123,0.403-0.309,1.034-0.555,1.897l-0.23,0.93c-0.031,0.183-0.031,0.431,0,0.736  c0.154,0.463,0.539,0.788,1.156,0.973c0.279,0.095,0.541,0.095,0.789,0c0.244-0.028,0.461-0.155,0.645-0.371  c0.498-0.521,0.791-1.139,0.881-1.852c0.123-0.613,0.094-1.297-0.09-2.035c-0.281-1.08-0.836-2.27-1.668-3.565  c-0.217-0.339-0.633-0.956-1.252-1.854c-0.34,0.187-0.74,0.278-1.201,0.278c-0.836,0.063-1.637-0.151-2.41-0.646  c-0.893-0.558-1.541-1.344-1.945-2.361c-0.4-1.111-0.445-2.143-0.139-3.104c0.156-0.585,0.434-1.095,0.836-1.525  c-0.061-0.063-0.107-0.125-0.141-0.185c-0.463-0.835-0.586-1.791-0.367-2.873c0.215-1.077,0.754-2.083,1.619-3.011  c0.77-0.83,1.682-1.435,2.73-1.804c0.928-0.369,1.836-0.492,2.73-0.369c0.309-0.71,0.881-1.268,1.715-1.667  c0.955-0.462,1.961-0.603,3.01-0.42c1.141,0.22,2.051,0.698,2.73,1.438c0.617,0.708,0.973,1.466,1.064,2.268  c0.031,0.187,0.031,0.371,0,0.554c1.082,0.125,2.254,0.389,3.518,0.791c0.246,0.06,0.48,0.154,0.695,0.277  c0.033-0.436,0.064-0.696,0.092-0.789l0.326-0.833c0.125-0.34,0.385-0.896,0.787-1.665c0.338-0.681,0.57-1.19,0.693-1.527  c0.064-0.401,0.094-0.651,0.094-0.744c0.029-0.185,0.029-0.339,0-0.462c-0.063-0.125-0.141-0.199-0.234-0.23  c-0.088-0.092-0.229-0.173-0.412-0.232c-0.406-0.029-0.85-0.029-1.346,0l-1.297,0.185c-0.986,0.217-1.619,0.357-1.898,0.417  c-0.525,0.093-0.801,0.093-0.834,0c-0.09-0.123,0.063-0.338,0.465-0.646c0.463-0.402,1.064-0.773,1.807-1.112  c0.461-0.187,0.939-0.34,1.434-0.465c0.68-0.152,1.313-0.2,1.896-0.137c0.467,0.03,0.867,0.137,1.207,0.323  c0.432,0.246,0.738,0.629,0.922,1.157c0.189,0.337,0.281,0.771,0.281,1.295c0,0.28-0.063,0.683-0.186,1.205  c-0.154,0.431-0.463,1.063-0.926,1.898l-0.832,1.481l-0.281,0.646c-0.059,0.125-0.137,0.343-0.229,0.652l-0.047,0.23  c1.143,0.556,2.174,1.218,3.102,1.99c0.092,0.029,0.186,0.075,0.277,0.137c0.125-0.276,0.248-0.554,0.369-0.832  c0.711-1.42,1.252-2.886,1.623-4.396c0.553-1.914,0.801-3.751,0.738-5.511c0-0.401,0-0.646,0-0.742l-0.369-2.221  c-0.184-1.235-0.262-2.222-0.232-2.964l0.141-1.479l0.092-0.373l1.344-3.008c0.338-0.677,0.525-1.204,0.555-1.571  C50.481,14.732,50.419,14.438,50.233,14.284z M77.964,43.173c0.25-0.185,0.496-0.323,0.742-0.415  c0.525-0.216,0.986-0.187,1.387,0.092c0.25,0.127,0.465,0.356,0.65,0.696c0.063,0.152,0.141,0.398,0.232,0.738  c0.029,0.218,0.092,0.682,0.184,1.389c0.061,0.866,0.094,1.327,0.094,1.391l0.092,0.508l0.092,0.185v0.046h0.051l0.041-0.046  l0.098-0.042c0.15-0.127,0.383-0.402,0.693-0.833c0.275-0.464,0.66-1.131,1.154-1.994c0.434-0.71,0.758-1.176,0.975-1.391  c0.277-0.339,0.477-0.479,0.6-0.413c0.094,0.09,0.107,0.336,0.047,0.742c-0.029,0.459-0.139,0.984-0.322,1.571  c-0.217,0.927-0.51,1.744-0.881,2.452c-0.309,0.558-0.664,1.004-1.064,1.344l-0.463,0.371c-0.246,0.093-0.496,0.17-0.738,0.231  c-0.494,0.032-0.977-0.139-1.438-0.51c-0.184-0.152-0.355-0.341-0.51-0.554c-0.092-0.22-0.154-0.418-0.186-0.604  c-0.121-0.34-0.186-0.631-0.186-0.879c0-0.399,0-0.911,0-1.527l0.049-1.203l-0.049-0.373c0-0.06,0-0.106,0-0.137  c-0.061-0.125-0.186-0.183-0.369-0.183c-0.125,0-0.34,0.015-0.648,0.042c-0.4,0.033-0.635,0.016-0.693-0.042  C77.503,43.669,77.624,43.452,77.964,43.173z M87.179,41.738h0.324c0.154,0.03,0.275,0.079,0.371,0.139  c0.246,0.151,0.4,0.403,0.463,0.742c0.063,0.215,0.076,0.433,0.045,0.65c-0.092,0.705-0.34,1.556-0.738,2.544l-1.068,2.085v0.09  l0.051,0.464l0.043,0.141l0.094,0.044l0.416-0.092c0.523-0.093,1.158-0.354,1.898-0.789c0.369-0.215,0.816-0.477,1.344-0.784  c0.338-0.185,0.553-0.279,0.648-0.279c0.152,0.095,0.137,0.357-0.049,0.788c-0.219,0.434-0.584,0.879-1.109,1.341  c-0.74,0.679-1.482,1.177-2.225,1.481c-0.246,0.094-0.555,0.157-0.924,0.186c-0.463,0.031-0.881-0.076-1.25-0.322  c-0.219-0.185-0.371-0.371-0.465-0.555c-0.152-0.186-0.246-0.388-0.275-0.604c-0.123-0.276-0.186-0.619-0.186-1.02v-0.14  l0.045-0.185c0-0.123,0.031-0.247,0.094-0.37c0.029-0.153,0.076-0.261,0.139-0.322l1.156-1.991c0.496-0.896,0.82-1.544,0.973-1.946  l0.092-0.276v-0.049h0.094v-0.046c-0.125-0.028-0.201-0.062-0.232-0.092c-0.215,0-0.371-0.016-0.461-0.045  c-0.127-0.032-0.186-0.065-0.186-0.094c-0.031-0.214,0.121-0.417,0.463-0.601C86.854,41.832,86.993,41.8,87.179,41.738z   M90.421,49.008c0.986-0.648,1.648-1.109,1.988-1.389l0.186-0.139l0.141-0.187c0.029-0.125,0.012-0.261-0.049-0.413l-0.277-0.327  c-0.059-0.092-0.092-0.169-0.092-0.23c0-0.065,0.076-0.107,0.232-0.139h0.23c0.188,0.062,0.307,0.107,0.371,0.139  c0.4,0.153,0.648,0.415,0.74,0.786v0.371c0,0.061-0.014,0.184-0.047,0.368c-0.09,0.187-0.215,0.419-0.369,0.696  c-0.432,0.556-1.111,1.203-2.039,1.943c-1.111,0.864-1.943,1.497-2.498,1.898l-0.465,0.42v0.042  c-0.15,0.403-0.232,0.696-0.232,0.881c0.033,0.185,0.141,0.341,0.328,0.464c0.152,0.125,0.43,0.261,0.832,0.417  c0.215,0.062,0.523,0.151,0.924,0.276c0.713,0.154,1.205,0.264,1.482,0.325c0.34,0.123,0.51,0.229,0.51,0.323  c0,0.152-0.184,0.281-0.555,0.371c-0.371,0.123-0.896,0.2-1.574,0.231c-0.373,0.03-0.742,0.013-1.111-0.047  c-0.523-0.03-0.988-0.169-1.391-0.415l-0.369-0.234c-0.186-0.156-0.309-0.275-0.371-0.367c-0.246-0.249-0.416-0.571-0.51-0.974  l-0.045-0.556l0.045-0.508c0-0.125,0.033-0.279,0.094-0.466l0.096-0.369l0.043-0.048l0.232-0.508l0.277-0.325  c0.123-0.155,0.295-0.306,0.508-0.463c0.402-0.306,0.883-0.646,1.436-1.018C89.433,49.656,89.864,49.377,90.421,49.008z   M89.216,56.739c0.584,0.153,1.031,0.262,1.342,0.327c0.402,0.121,0.789,0.151,1.158,0.088l0.463-0.048l0.508-0.135  c0.342-0.094,0.559-0.185,0.648-0.278l0.186-0.141l0.094-0.23c0.123-0.341,0.215-0.506,0.277-0.506c0.061,0,0.094,0.183,0.094,0.554  l-0.047,0.323c-0.031,0.185-0.094,0.322-0.184,0.413c-0.125,0.22-0.387,0.419-0.787,0.604l-1.113,0.371  c-0.34,0.09-0.801,0.123-1.389,0.09c-0.402-0.028-0.912-0.105-1.527-0.229c-0.709-0.123-1.252-0.232-1.621-0.323l-1.668-0.095  c-0.77,0.095-1.342,0.202-1.711,0.325l-0.791,0.321c-0.367,0.22-0.631,0.389-0.783,0.514c-0.43,0.308-0.943,0.784-1.529,1.433  c-0.615,0.589-1.604,1.775-2.963,3.567c-0.645,0.893-1.141,1.573-1.479,2.037c-0.617,0.802-1.176,1.498-1.668,2.081  c-1.299,1.544-2.561,2.794-3.799,3.75c-0.861,0.617-1.68,1.036-2.453,1.254c-0.586,0.121-1.109,0.151-1.574,0.089  c-0.494-0.089-0.955-0.279-1.387-0.555c-0.031-0.03-0.064-0.062-0.092-0.092c-0.619-0.433-1.035-1.052-1.252-1.853  c-0.123-0.558-0.186-1.144-0.186-1.758c0-0.558,0.016-1.1,0.045-1.621v-1.344c-0.061-0.682-0.184-1.545-0.369-2.593  c-0.061-0.492-0.109-0.912-0.141-1.248c-0.027,0-0.043,0.014-0.043,0.042c-0.371,1.296-0.742,2.363-1.113,3.196l-0.414,0.881  c-0.25,0.369-0.418,0.646-0.51,0.835c-0.279,0.492-0.465,0.784-0.557,0.877L60.188,68.5c-1.914,2.282-4.34,4.075-7.27,5.369  c-0.123,0.094-0.465,0.232-1.02,0.415l-0.928,0.323c-0.891,0.22-1.557,0.358-1.988,0.42l-3.748,0.415  c-2.439,0.096-4.633-0.077-6.578-0.508c-0.707-0.093-1.355-0.218-1.943-0.371c0.154,0.062,0.324,0.167,0.51,0.323  c0.402,0.246,1.174,0.709,2.316,1.389l3.053,1.808c0.064,0.06,0.65,0.448,1.762,1.155l1.854,1.347  c0.83,0.645,1.436,1.323,1.803,2.033c0.277,0.556,0.418,1.096,0.418,1.623c0.031,0.613-0.125,1.185-0.463,1.713l-0.232,0.37  c-0.154,0.185-0.246,0.294-0.279,0.322c-0.184,0.186-0.385,0.37-0.6,0.557c-0.465,0.367-0.99,0.617-1.574,0.742  c-0.895,0.123-1.977,0.026-3.242-0.277l-2.824-0.975c-1.018-0.369-1.945-0.771-2.777-1.202c-2.375-1.111-4.15-1.839-5.324-2.177  l-1.295-0.323c-0.557-0.095-0.986-0.172-1.297-0.231l-2.639-0.28c-0.309-0.029-0.711-0.062-1.203-0.093  c-0.773-0.028-1.189-0.046-1.252-0.046h-2.406c-1.912,0.095-3.32,0.187-4.215,0.277c-2.129,0.25-4.105,0.727-5.926,1.438  c-0.801,0.338-1.344,0.521-1.619,0.554c-0.4,0.151-0.602,0.202-0.602,0.139c-0.063,0.063-0.156,0.03-0.277-0.093  c-0.094-0.063-0.186-0.202-0.279-0.415c-0.152-0.343-0.186-0.679-0.092-1.021c0.123-0.4,0.371-0.754,0.742-1.062  c0.367-0.312,1.154-0.758,2.359-1.345c0.461-0.246,0.818-0.479,1.064-0.694c0.154-0.123,0.248-0.23,0.281-0.324v-0.139l-0.049-0.185  l-0.094-0.233l-0.277-0.415c-0.154-0.217-0.48-0.403-0.971-0.556c-0.588-0.279-1.344-0.54-2.27-0.787  c-0.836-0.215-1.357-0.371-1.574-0.465c-0.432-0.154-0.648-0.275-0.648-0.369c0-0.154,0.217-0.275,0.648-0.371  c0.465-0.121,1.049-0.183,1.76-0.183c0.924,0.028,1.836,0.183,2.73,0.459c0.678,0.22,1.221,0.512,1.621,0.883  c0.186,0.185,0.416,0.476,0.693,0.879c0.092,0.156,0.17,0.31,0.232,0.462l0.139,0.604c0.096,0.492,0.016,0.956-0.23,1.387  c-0.188,0.312-0.447,0.617-0.787,0.929c-0.465,0.277-0.99,0.521-1.574,0.741l-2.223,0.83c-0.432,0.248-0.68,0.512-0.742,0.791  c-0.029,0.123-0.045,0.274-0.045,0.461v0.045c0.063-0.062,0.154-0.137,0.279-0.231c0.676-0.522,1.17-0.848,1.48-0.969  c1.697-0.992,3.719-1.685,6.064-2.085c0.803-0.156,2.252-0.357,4.352-0.604l2.453-0.047c0.555,0,1.42,0.018,2.592,0.047l2.732,0.232  c0.34,0.03,0.818,0.092,1.434,0.187l1.438,0.371c1.266,0.369,3.133,1.123,5.602,2.264c0.803,0.371,1.697,0.76,2.684,1.159  l2.639,0.883c1.021,0.275,1.809,0.368,2.365,0.275c0.369-0.063,0.646-0.169,0.832-0.325c0.092-0.06,0.23-0.167,0.416-0.323  l0.139-0.183c0.092-0.096,0.139-0.171,0.139-0.232c0.279-0.433,0.279-0.942,0-1.531c-0.186-0.49-0.602-1.032-1.248-1.617  c-0.031-0.032-0.172-0.139-0.418-0.325l-5.834-4.304c-1.295-1.02-2.02-1.593-2.176-1.714c-0.678-0.619-1.156-1.067-1.436-1.346  c-1.543-0.489-2.932-1.095-4.164-1.803l-0.092-0.092c-0.033-0.031-0.125-0.123-0.279-0.279c-0.063-0.062-0.094-0.125-0.094-0.185  c0-0.03,0.047-0.044,0.139-0.044c0.154,0,0.309,0.044,0.463,0.137c0.432,0.092,1.373,0.34,2.826,0.738  c1.666,0.402,3.254,0.679,4.766,0.833c1.854,0.25,3.938,0.278,6.25,0.096l3.521-0.417l2.592-0.696  c0.186-0.06,0.477-0.183,0.879-0.369c2.563-1.141,4.799-2.746,6.713-4.813l0.6-0.65c0.156-0.154,0.34-0.398,0.557-0.74l0.881-1.481  c0.4-0.771,0.834-1.76,1.297-2.964c0.771-2.065,1.42-3.548,1.943-4.442c0.619-1.019,1.018-1.498,1.205-1.437  c0.059,0.062-0.107,0.633-0.51,1.714c-0.186,0.554-0.4,1.296-0.648,2.221c0.061,0.343,0.152,0.726,0.275,1.158  c0.096,0.431,0.281,1.173,0.559,2.224c0.217,0.988,0.4,1.865,0.555,2.639l0.094,3.1c0.031,0.556,0.107,1.006,0.232,1.345  c0.152,0.401,0.338,0.679,0.555,0.831l0.092,0.05c0.434,0.278,0.91,0.321,1.434,0.136c0.527-0.123,1.127-0.431,1.811-0.923  c0.277-0.188,0.584-0.45,0.92-0.79c0.188-0.185,0.48-0.462,0.881-0.833l1.666-1.806c0.711-0.925,1.732-2.285,3.059-4.071  c1.355-1.731,2.438-2.964,3.24-3.706c1.326-1.42,2.654-2.27,3.982-2.547c0.557-0.153,1.264-0.23,2.127-0.23l1.02,0.046  c0.25,0,0.57,0.06,0.975,0.185C87.858,56.339,88.382,56.493,89.216,56.739z M41.065,13.313c-0.121,0-0.244,0.092-0.369,0.274  c-0.371,0.279-0.588,0.402-0.648,0.373c-0.152-0.061-0.186-0.308-0.094-0.74c0.125-0.31,0.279-0.571,0.465-0.79  c0.184-0.181,0.402-0.306,0.646-0.367c0.311-0.093,0.588-0.079,0.834,0.046c0.402,0.125,0.834,0.385,1.297,0.787  c0.402,0.433,0.711,0.802,0.928,1.111c0.398,0.588,0.957,1.48,1.664,2.687l0.371,0.554c0.156,0.185,0.277,0.325,0.369,0.416  c0.125,0.153,0.232,0.232,0.326,0.232l0.137,0.046c0.158,0.033,0.34-0.092,0.557-0.369c0.154-0.187,0.34-0.464,0.557-0.835  c0.092-0.246,0.275-0.723,0.557-1.435c0.152-0.401,0.275-0.619,0.369-0.649c0.184,0,0.309,0.217,0.369,0.649  c0.125,0.556,0.125,1.175,0,1.853c-0.061,0.461-0.215,0.894-0.463,1.296c-0.219,0.371-0.385,0.587-0.508,0.648  c-0.309,0.34-0.617,0.54-0.928,0.602c-0.432,0.123-0.865,0.123-1.293,0c-0.373-0.123-0.684-0.325-0.928-0.602  c-0.186-0.121-0.416-0.339-0.695-0.648l-0.508-0.788c-0.682-1.233-1.158-2.114-1.434-2.637c-0.342-0.557-0.557-0.896-0.65-1.02  c-0.152-0.187-0.34-0.402-0.555-0.65C41.345,13.296,41.222,13.282,41.065,13.313z M39.726,14.794  c0.031-0.062,0.107-0.092,0.229-0.092c0.154-0.033,0.34-0.018,0.559,0.046c0.553,0.154,1.125,0.494,1.711,1.02  c0.863,0.738,1.496,1.512,1.9,2.315c0.152,0.369,0.246,0.692,0.275,0.971c0.063,0.493-0.014,0.954-0.23,1.387  c-0.215,0.464-0.57,0.789-1.066,0.974l-0.6,0.185l-0.324,0.048h-0.371c-0.369-0.03-0.773-0.139-1.205-0.325  c-0.184-0.123-0.447-0.31-0.787-0.556c-0.184-0.092-0.615-0.429-1.295-1.02c-0.865-0.707-1.512-1.141-1.943-1.294  c-0.25-0.093-0.449-0.125-0.605-0.093c-0.09,0.031-0.262,0.137-0.508,0.321c-0.34,0.25-0.557,0.358-0.648,0.327  c-0.152-0.062-0.152-0.342,0-0.833c0.188-0.373,0.402-0.633,0.648-0.788c0.371-0.308,0.818-0.433,1.344-0.369  c0.461,0.062,0.959,0.23,1.482,0.508c0.277,0.155,0.707,0.417,1.297,0.788l1.297,0.879c0.275,0.185,0.492,0.31,0.646,0.371  c0.215,0.093,0.355,0.139,0.416,0.139h0.047l0.326-0.094c0.057,0,0.107-0.029,0.137-0.095c0.031,0,0.047-0.06,0.047-0.181  c0-0.188-0.031-0.371-0.094-0.558c-0.186-0.587-0.568-1.264-1.158-2.037c-0.154-0.185-0.523-0.635-1.111-1.342  C39.833,15.085,39.692,14.887,39.726,14.794z M38.149,20.303c0.865,0.248,1.635,0.665,2.316,1.254  c0.523,0.429,0.91,0.863,1.158,1.292c0.4,0.681,0.568,1.375,0.508,2.085c-0.063,0.308-0.186,0.663-0.371,1.063  c-0.123,0.188-0.217,0.323-0.275,0.419c-0.154,0.216-0.313,0.367-0.465,0.464c-0.121,0.09-0.418,0.23-0.881,0.413l-0.785,0.279  c-1.143,0.155-1.9,0.278-2.27,0.369l-0.461,0.232c-0.125,0.093-0.188,0.2-0.188,0.323c0,0.125-0.016,0.264-0.045,0.417  c0,0.123-0.031,0.202-0.094,0.233c-0.215,0.092-0.432-0.063-0.646-0.464c-0.125-0.31-0.141-0.648-0.047-1.02  c0.092-0.215,0.23-0.415,0.416-0.602c0.123-0.125,0.293-0.248,0.508-0.369c0.373-0.216,1.158-0.525,2.361-0.928  c0.436-0.121,0.758-0.261,0.973-0.413l0.186-0.327c0.061-0.125,0.092-0.244,0.092-0.369c0.094-0.494-0.199-1.083-0.879-1.76  c-0.494-0.492-1.064-0.925-1.713-1.298c-0.311-0.212-0.74-0.464-1.297-0.74c-0.338-0.152-0.508-0.293-0.508-0.418  c-0.063-0.183,0.152-0.29,0.648-0.321C36.917,20.025,37.503,20.087,38.149,20.303z M17.13,49.148  c0.094-0.279,0.219-0.512,0.369-0.696c0.283-0.373,0.621-0.571,1.02-0.604c0.281-0.093,0.572-0.093,0.879,0  c0.217,0.096,0.449,0.23,0.697,0.419c0.367,0.277,0.678,0.663,0.926,1.158c0.34,0.556,0.74,1.433,1.203,2.638  c0.186,0.585,0.34,0.987,0.463,1.204l0.047,0.093c0.061,0.06,0.061,0.092,0,0.092v0.049l0.047,0.044c0.031,0,0.092,0,0.184,0  l0.047-0.185l0.416-0.603c0.68-1.203,1.127-1.76,1.346-1.667c0.305,0.125,0.275,0.85-0.094,2.177l-0.23,0.833l-0.141,0.323  c-0.434,0.833-0.973,1.221-1.621,1.157c-0.4-0.028-0.74-0.187-1.018-0.463l-0.232-0.231l-0.369-0.509l-0.094-0.233  c-0.215-0.399-0.416-0.877-0.6-1.433c-0.465-1.268-0.773-2.085-0.928-2.452c-0.156-0.344-0.311-0.604-0.463-0.79L18.8,49.236  c0-0.028-0.047-0.044-0.141-0.044c-0.094-0.06-0.246-0.026-0.465,0.093c-0.121,0.062-0.293,0.155-0.51,0.278  c-0.336,0.216-0.539,0.308-0.6,0.277C16.96,49.718,16.978,49.484,17.13,49.148z M34.724,62.432c0.063,0.031,0.045,0.143-0.045,0.327  c-0.186,0.246-0.371,0.479-0.555,0.694c-0.561,0.556-1.484,1.095-2.781,1.619c-0.246,0.093-0.91,0.339-1.986,0.74  c-0.867,0.309-1.561,0.587-2.086,0.837c-0.832,0.398-1.467,0.833-1.898,1.292c-0.246,0.279-0.387,0.541-0.416,0.789  c-0.094,0.312-0.094,0.633,0,0.971c0.121,0.65,0.494,1.343,1.113,2.085c0.459,0.617,1.029,1.233,1.713,1.854  c0.984,0.923,2.096,1.832,3.33,2.73c0.215,0.152,1.033,0.724,2.451,1.712c0.623,0.399,0.912,0.648,0.885,0.74  c-0.033,0.183-0.418,0.169-1.158-0.048c-0.588-0.152-1.145-0.355-1.668-0.603c-0.553,0.063-1.438,0.063-2.641,0  c-1.326-0.06-2.529-0.185-3.609-0.365c-0.586-0.127-1.297-0.327-2.131-0.604l-1.063-0.464c-0.463-0.248-0.852-0.494-1.158-0.742  c-0.678-0.615-1.141-1.406-1.391-2.357c-0.154-0.744-0.184-1.529-0.09-2.364c0-0.062,0.029-0.399,0.09-1.019l0.232-0.972  c0.215-0.617,0.357-1.109,0.418-1.482l0.047-0.371v-0.139l-0.047-0.325l-0.186-0.181l-0.326-0.097l-0.6-0.042  c-0.127-0.032-0.199-0.081-0.23-0.143c-0.064-0.092-0.016-0.185,0.137-0.276l0.232-0.139l0.416-0.139  c0.123-0.094,0.326-0.125,0.604-0.094l0.369,0.14c0.186,0.062,0.309,0.137,0.371,0.231c0.184,0.244,0.277,0.387,0.277,0.419  c0.123,0.212,0.184,0.352,0.184,0.413l0.141,0.879c0,0.464-0.063,1.037-0.184,1.714l-0.189,1.76  c-0.029,0.615,0.049,1.188,0.232,1.714c0.188,0.615,0.465,1.065,0.836,1.342c0.092,0.121,0.338,0.293,0.74,0.51l0.877,0.462  c0.742,0.248,1.359,0.433,1.854,0.556c0.771,0.248,1.82,0.512,3.146,0.789c-0.893-0.557-1.711-1.16-2.453-1.807  c-0.801-0.681-1.465-1.34-1.992-1.992c-0.801-0.958-1.324-1.912-1.572-2.869c-0.152-0.615-0.137-1.25,0.047-1.898  c0.094-0.279,0.23-0.587,0.416-0.927c0.219-0.275,0.404-0.492,0.555-0.645c0.586-0.621,1.391-1.143,2.41-1.577l-0.697-0.094  c-0.49-0.091-1.262-0.277-2.313-0.557c-1.299-0.399-2.672-0.63-4.123-0.693c-0.986-0.091-2.129-0.073-3.424,0.048  c-2.221,0.153-3.352,0.123-3.377-0.091c-0.033-0.127,0.229-0.312,0.783-0.558c0.586-0.248,1.373-0.494,2.361-0.738  c1.451-0.343,2.688-0.514,3.705-0.514l1.109,0.048c0.246,0.033,0.619,0.077,1.111,0.141l1.205,0.185  c0.248,0.06,0.633,0.171,1.158,0.325l2.127,0.554l1.992,0.231c1.297,0.064,2.422,0.015,3.381-0.137  c0.371-0.063,0.971-0.141,1.805-0.231c0.154-0.065,0.311-0.127,0.463-0.187l0.74-0.326C34.554,62.39,34.663,62.372,34.724,62.432z   M17.499,51.091c-0.15-0.398-0.195-0.631-0.137-0.694c0.125-0.123,0.371-0.046,0.742,0.23c0.4,0.339,0.803,0.817,1.203,1.437  c0.217,0.402,0.4,0.801,0.555,1.204c0.248,0.585,0.357,1.141,0.324,1.668c0,0.399-0.121,0.784-0.369,1.155  c-0.248,0.402-0.635,0.664-1.158,0.787c-0.311,0.063-0.695,0.094-1.16,0.094l-0.738-0.14l-0.139-0.093l-0.139-0.046  c-0.092-0.031-0.186-0.06-0.277-0.091c0.186,0.091,0.354,0.214,0.508,0.369c0.154,0.123,0.371,0.337,0.648,0.648  c0.277,0.369,0.434,0.725,0.461,1.065c0.066,0.431,0,0.863-0.184,1.294c-0.152,0.369-0.369,0.696-0.648,0.972  c-0.152,0.187-0.338,0.325-0.555,0.417l-0.508,0.187l-2.363,0.369c-1.082,0.123-1.758,0.275-2.035,0.466l-0.232,0.042l-0.045,0.187  c-0.063,0.093-0.063,0.262,0,0.51c0.029,0.431,0.014,0.664-0.047,0.694c-0.156,0.125-0.387,0.018-0.695-0.325  c-0.217-0.338-0.355-0.633-0.416-0.879c0-0.215,0.031-0.448,0.092-0.694c0.125-0.246,0.279-0.477,0.465-0.692  c0.215-0.188,0.631-0.419,1.248-0.696c0.432-0.153,0.881-0.292,1.342-0.417l1.436-0.274c0.342-0.064,0.557-0.11,0.65-0.141  l0.23-0.093v-0.046c0.121-0.063,0.217-0.171,0.277-0.327l0.094-0.274c0-0.188-0.141-0.402-0.416-0.65  c-0.375-0.341-0.973-0.787-1.807-1.341c-1.266-0.834-1.867-1.344-1.807-1.53c0.031-0.121,0.262-0.185,0.695-0.185  c0.463,0.028,1.033,0.169,1.713,0.419c0.584,0.213,1.096,0.446,1.527,0.694l-2.084-1.851c-0.369-0.344-0.693-0.605-0.971-0.79  l-0.604-0.415c-0.092,0-0.217,0.046-0.369,0.138l-0.277,0.554c-0.186,0.402-0.357,0.604-0.51,0.604  c-0.123,0-0.217-0.248-0.281-0.742c-0.027-0.214,0-0.508,0.096-0.879c0.094-0.248,0.232-0.462,0.418-0.646  c0.182-0.188,0.414-0.329,0.693-0.419h0.512l0.414,0.09c0.246,0.065,0.494,0.158,0.742,0.279c0.402,0.187,0.83,0.448,1.295,0.788  c0.125,0.123,0.525,0.464,1.203,1.02l0.879,0.648l0.139,0.138v0.279l0.047-0.279h0.047l0.047,0.049h0.139  c0.09,0.03,0.201,0.044,0.324,0.044c0.217,0.028,0.371,0.028,0.461,0h0.141l0.045-0.23c0.063-0.246,0.049-0.589-0.045-1.02  c-0.092-0.431-0.186-0.787-0.279-1.065C17.997,52.51,17.81,51.985,17.499,51.091z M17.085,55.303l0.045-0.046h-0.045V55.303z   M15.835,70.675l0.463,0.51l0.186,0.139l0.184,0.092l0.094-0.139c0.186-0.183,0.355-0.494,0.51-0.925l0.324-1.113  c0.215-0.768,0.387-1.312,0.51-1.617c0.186-0.434,0.355-0.635,0.51-0.603c0.09,0.06,0.186,0.292,0.277,0.692  c0.061,0.587,0.092,1.173,0.092,1.762c0,0.337-0.045,0.738-0.139,1.202c-0.123,0.679-0.311,1.218-0.555,1.621  c-0.248,0.4-0.557,0.681-0.928,0.833c-0.186,0.062-0.416,0.107-0.695,0.139c-0.246,0-0.461-0.016-0.648-0.047  c-0.152-0.03-0.277-0.074-0.365-0.14c-0.158-0.093-0.268-0.152-0.326-0.185l-0.418-0.37c-0.154-0.123-0.357-0.355-0.602-0.694  c-0.834-1.203-1.418-2.038-1.76-2.5c-0.307-0.399-0.557-0.692-0.74-0.879c-0.186-0.155-0.373-0.264-0.555-0.324  c-0.186-0.031-0.387,0.03-0.602,0.186l-0.51,0.37c-0.34,0.276-0.541,0.384-0.605,0.324c-0.152-0.065-0.152-0.31,0-0.744  c0.094-0.308,0.217-0.554,0.371-0.742c0.309-0.396,0.695-0.661,1.16-0.782c0.523-0.091,1.064,0.048,1.619,0.415  c0.371,0.218,0.771,0.538,1.205,0.974C14.198,68.471,14.849,69.317,15.835,70.675z M15.003,74.331  c-0.094,0.496-0.357,0.881-0.787,1.159c-0.34,0.277-0.682,0.479-1.018,0.603c-0.342,0.123-0.727,0.183-1.16,0.183  c-0.34-0.029-0.693-0.091-1.064-0.183c-0.402-0.154-0.928-0.416-1.574-0.789l-1.018-0.646c-0.279-0.123-0.479-0.169-0.604-0.14  c-0.184,0.06-0.371,0.199-0.555,0.417l-0.51,0.508c-0.248,0.343-0.432,0.48-0.555,0.415c-0.154-0.06-0.186-0.304-0.092-0.738  c0.029-0.217,0.107-0.479,0.23-0.788c0.186-0.431,0.449-0.785,0.787-1.063c0.279-0.187,0.586-0.279,0.926-0.279  c0.246,0,0.539,0.046,0.881,0.141c0.307,0.062,0.785,0.264,1.436,0.6c0.461,0.218,0.863,0.373,1.203,0.466l0.508,0.09  c0.154,0,0.326-0.028,0.51-0.09c0.123-0.033,0.277-0.093,0.463-0.187l0.092-0.139c0.063,0,0.063-0.077,0-0.229  c-0.061-0.158-0.137-0.312-0.23-0.464c-0.309-0.56-0.801-1.159-1.482-1.808c-0.615-0.587-1.02-0.988-1.203-1.202  c-0.307-0.277-0.434-0.482-0.369-0.604c0.029-0.156,0.277-0.17,0.74-0.047c0.492,0.121,1.064,0.373,1.715,0.741  c0.955,0.647,1.664,1.28,2.127,1.897c0.186,0.277,0.355,0.571,0.51,0.879C15.062,73.53,15.095,73.963,15.003,74.331z"></path></g><g id="SvgjsG2115" featureKey="text1" fill="#ffffff" transform="matrix(2.8973318250085054,0,0,2.8973318250085054,-4.056264140545266,92.11360922032698)"><path d="M8.74 10.42 l0 12.74 c0 1 -1.92 1.02 -2.12 0.52 l-3 -7.36 l0 7.24 c0 0.6 -2.22 0.6 -2.22 0 l0 -12.5 c0 -1.56 1.94 -1.1 2.2 -0.54 l2.94 7.08 l0 -7.18 c0 -0.6 2.2 -0.6 2.2 0 z M16.64 10.42 l2.08 12.7 c0.16 1 -2.1 1.1 -2.22 0.38 l-0.4 -2.4 l-2.34 0 l-0.4 2.4 c-0.1 0.6 -2.38 0.62 -2.22 -0.38 l2.1 -12.7 c0.1 -0.6 3.32 -0.54 3.4 0 z M15.72 18.84 l-0.78 -4.78 l-0.8 4.78 l1.58 0 z M20.759999999999998 10 l7.96 0 c0.6 0 0.6 2.24 0 2.24 l-2.84 0.04 l0 11.28 c0 0.6 -2.28 0.6 -2.28 0 l0 -11.28 l-2.84 -0.04 c-0.6 0 -0.6 -2.24 0 -2.24 z M33.46 10.42 l0 13.14 c0 0.6 -2.28 0.6 -2.28 0 l0 -13.14 c0 -0.6 2.28 -0.6 2.28 0 z M42.72 21.46 c-0.36 1.54 -1.44 2.54 -3.14 2.54 l-0.52 0 c-1.68 0 -2.76 -1 -3.14 -2.54 c-0.02 -0.12 -0.08 -8.56 -0.06 -8.64 c0.28 -1.68 1.32 -2.78 3.2 -2.82 l0.52 0 c1.9 0.04 2.92 1.14 3.2 2.82 c0.02 0.08 -0.02 8.5 -0.06 8.64 z M40.58 20.14 l0 -6.26 c0 -0.48 -0.12 -1.18 -0.7 -1.46 c-0.34 -0.18 -0.78 -0.18 -1.12 0 c-0.58 0.28 -0.7 0.98 -0.7 1.46 l0 6.26 c0.02 0.48 0.12 1.18 0.7 1.46 c0.34 0.18 0.78 0.18 1.12 0 c0.58 -0.28 0.68 -0.98 0.7 -1.46 z M52.52 10.42 l0 12.74 c0 1 -1.92 1.02 -2.12 0.52 l-3 -7.36 l0 7.24 c0 0.6 -2.22 0.6 -2.22 0 l0 -12.5 c0 -1.56 1.94 -1.1 2.2 -0.54 l2.94 7.08 l0 -7.18 c0 -0.6 2.2 -0.6 2.2 0 z M60.42 10.42 l2.08 12.7 c0.16 1 -2.1 1.1 -2.22 0.38 l-0.4 -2.4 l-2.34 0 l-0.4 2.4 c-0.1 0.6 -2.38 0.62 -2.22 -0.38 l2.1 -12.7 c0.1 -0.6 3.32 -0.54 3.4 0 z M59.5 18.84 l-0.78 -4.78 l-0.8 4.78 l1.58 0 z M67.18 21.740000000000002 l2.88 0 c0.4 0 0.4 2.26 0 2.26 l-4.02 0 c-1.14 0 -1.14 0 -1.14 -1.1 l0 -12.44 c0 -0.4 2.28 -0.4 2.28 0 l0 11.28 z"></path></g><g id="SvgjsG2116" featureKey="text2" fill="#ffffff" transform="matrix(3.4442338524570277,0,0,3.4442338524570277,-4.82192443723021,137.66099742532586)"><path d="M2.54 10 l4 0 c0.6 0 0.6 2.28 0 2.28 l-2.86 0 l0 3.64 l2 0 c0.6 0 0.6 2.3 0 2.3 l-2 0 l0 5.34 c0 0.6 -2.28 0.6 -2.28 0 l0 -12.46 c0 -1.1 0 -1.1 1.14 -1.1 z M11.68 10.42 l0 13.14 c0 0.6 -2.28 0.6 -2.28 0 l0 -13.14 c0 -0.6 2.28 -0.6 2.28 0 z M21.82 10.42 l0 12.74 c0 1 -1.92 1.02 -2.12 0.52 l-3 -7.36 l0 7.24 c0 0.6 -2.22 0.6 -2.22 0 l0 -12.5 c0 -1.56 1.94 -1.1 2.2 -0.54 l2.94 7.08 l0 -7.18 c0 -0.6 2.2 -0.6 2.2 0 z M29.72 10.42 l2.08 12.7 c0.16 1 -2.1 1.1 -2.22 0.38 l-0.4 -2.4 l-2.34 0 l-0.4 2.4 c-0.1 0.6 -2.38 0.62 -2.22 -0.38 l2.1 -12.7 c0.1 -0.6 3.32 -0.54 3.4 0 z M28.799999999999997 18.84 l-0.78 -4.78 l-0.8 4.78 l1.58 0 z M41.54 10.42 l0 12.74 c0 1 -1.92 1.02 -2.12 0.52 l-3 -7.36 l0 7.24 c0 0.6 -2.22 0.6 -2.22 0 l0 -12.5 c0 -1.56 1.94 -1.1 2.2 -0.54 l2.94 7.08 l0 -7.18 c0 -0.6 2.2 -0.6 2.2 0 z M49.199999999999996 20.2 c0 -0.6 2.22 -0.6 2.22 0 c0 2.24 -1.16 3.8 -3.28 3.8 c-2.22 0 -3.74 -1.38 -3.8 -3.5 l0 -0.04 l0 -6.9 l0 -0.04 c0.06 -2.14 1.66 -3.56 3.8 -3.52 c2.24 0.04 3.28 1.6 3.28 3.82 c0 0.6 -2.22 0.6 -2.22 0 c0 -0.22 0 -0.4 -0.04 -0.6 c-0.12 -1.18 -1.54 -0.96 -1.84 -0.8 c-0.58 0.28 -0.7 0.98 -0.7 1.46 l0 6.26 c0.02 0.48 0.12 1.18 0.7 1.46 c0.3 0.16 1.72 0.38 1.84 -0.78 c0.04 -0.2 0.04 -0.4 0.04 -0.62 z M56.1 21.72 l2.86 0 c0.6 0 0.6 2.28 0 2.28 l-3.86 0 c-1.28 0 -1.28 0 -1.28 -1.08 l0 -11.84 c0 -1.08 0 -1.08 1.22 -1.1 l3.9 0.02 c0.6 0 0.6 2.28 0 2.28 l-2.84 0 l0 3.64 l2 0 c0.6 0 0.6 2.3 0 2.3 l-2 0 l0 3.5 z"></path></g><g id="SvgjsG2117" featureKey="text3" fill="#ffffff" transform="matrix(0.97075110722965,0,0,0.97075110722965,-1.1649011435195002,229.36964385580217)"><path d="M1.2 9.66 q0.54 -0.08 0.98 -0.12 t0.78 -0.04 q0.36 0 0.81 0.04 t0.97 0.12 l0 11.2 l4.62 0 q0.1 0.5 0.13 0.87 t0.03 0.67 q0 0.34 -0.03 0.71 t-0.13 0.89 l-8.16 0 l0 -14.34 z M13.38 23.96 q-0.46 0.08 -0.84 0.12 t-0.74 0.04 t-0.83 -0.05 t-1.05 -0.15 l4.48 -14.28 q0.52 -0.06 0.97 -0.1 t0.91 -0.04 q0.38 0 0.83 0.04 t1.03 0.1 l4.42 14.3 q-1.14 0.18 -2 0.18 q-0.4 0 -0.8 -0.04 t-0.86 -0.12 l-0.76 -2.78 q-0.56 0.16 -1.07 0.24 t-1.01 0.08 q-0.46 0 -0.94 -0.07 t-1 -0.21 z M16.18 13.4 l-1.34 5.14 q0.34 0.1 0.64 0.16 t0.62 0.06 q0.34 0 0.67 -0.05 t0.69 -0.15 z  M33.86 15.22 q0.84 0.34 1.51 0.69 t1.15 0.84 t0.74 1.18 t0.26 1.67 q0 1.06 -0.37 1.91 t-1.09 1.46 t-1.77 0.94 t-2.41 0.33 q-1.24 0 -2.19 -0.2 t-2.05 -0.62 q0.08 -0.7 0.28 -1.49 t0.48 -1.61 q1.84 0.8 3.2 0.8 q1.02 0 1.59 -0.31 t0.57 -1.07 q0 -0.32 -0.12 -0.55 t-0.32 -0.39 t-0.45 -0.27 t-0.51 -0.21 l-1.12 -0.42 q-0.72 -0.26 -1.31 -0.62 t-1.01 -0.85 t-0.65 -1.13 t-0.23 -1.5 q0 -1.06 0.36 -1.88 t1.01 -1.39 t1.57 -0.86 t2.06 -0.29 q1.02 0 1.97 0.2 t2.03 0.58 q-0.08 0.64 -0.29 1.41 t-0.53 1.45 q-0.52 -0.22 -1.22 -0.46 t-1.74 -0.24 q-0.32 0 -0.61 0.06 t-0.52 0.19 t-0.37 0.36 t-0.14 0.57 q0 0.58 0.38 0.86 t0.9 0.48 z M39.160000000000004 16.86 q0 -1.6 0.37 -2.97 t1.14 -2.37 t1.96 -1.57 t2.83 -0.57 t2.82 0.57 t1.95 1.57 t1.14 2.37 t0.37 2.97 t-0.37 2.95 t-1.14 2.34 t-1.95 1.54 t-2.82 0.55 t-2.83 -0.55 t-1.96 -1.54 t-1.14 -2.34 t-0.37 -2.95 z M48.02 16.86 q0 -4.36 -2.54 -4.36 q-2.6 0 -2.6 4.36 q0 2.18 0.63 3.25 t1.95 1.07 q2.56 0 2.56 -4.32 z M53.760000000000005 9.66 q0.54 -0.08 0.98 -0.12 t0.78 -0.04 q0.36 0 0.81 0.04 t0.97 0.12 l0 11.2 l4.62 0 q0.1 0.5 0.13 0.87 t0.03 0.67 q0 0.34 -0.03 0.71 t-0.13 0.89 l-8.16 0 l0 -14.34 z M69 24.22 q-1.62 0 -2.69 -0.44 t-1.69 -1.27 t-0.87 -2.01 t-0.25 -2.66 l0 -8.18 q0.58 -0.08 1 -0.11 t0.8 -0.03 q0.34 0 0.75 0.03 t0.99 0.11 l0 7.76 q0 1 0.08 1.7 t0.29 1.14 t0.59 0.63 t1 0.19 t1.01 -0.19 t0.6 -0.63 t0.28 -1.14 t0.07 -1.7 l0 -7.76 q0.6 -0.08 1.01 -0.11 t0.75 -0.03 q0.36 0 0.78 0.03 t1 0.11 l0 8.18 q0 1.48 -0.25 2.66 t-0.87 2.01 t-1.69 1.27 t-2.69 0.44 z M79.44 12.74 l-3.34 0 q-0.18 -0.86 -0.18 -1.58 q0 -0.66 0.18 -1.54 l10.22 0 q0.08 0.44 0.12 0.82 t0.04 0.72 q0 0.66 -0.16 1.58 l-3.34 0 l0 11.2 q-1.06 0.18 -1.76 0.18 q-0.74 0 -1.78 -0.18 l0 -11.2 z M89.76 24.12 q-0.74 0 -1.78 -0.18 l0 -14.28 q0.54 -0.08 0.98 -0.12 t0.78 -0.04 q0.36 0 0.81 0.04 t0.97 0.12 l0 14.28 q-1.06 0.18 -1.76 0.18 z M93.53999999999999 16.86 q0 -1.6 0.37 -2.97 t1.14 -2.37 t1.96 -1.57 t2.83 -0.57 t2.82 0.57 t1.95 1.57 t1.14 2.37 t0.37 2.97 t-0.37 2.95 t-1.14 2.34 t-1.95 1.54 t-2.82 0.55 t-2.83 -0.55 t-1.96 -1.54 t-1.14 -2.34 t-0.37 -2.95 z M102.4 16.86 q0 -4.36 -2.54 -4.36 q-2.6 0 -2.6 4.36 q0 2.18 0.63 3.25 t1.95 1.07 q2.56 0 2.56 -4.32 z M108.14 9.66 q0.44 -0.08 0.8 -0.12 t0.7 -0.04 q0.36 0 0.75 0.05 t0.67 0.11 l4.64 7.84 l0 -7.84 q0.52 -0.08 0.94 -0.12 t0.76 -0.04 t0.72 0.04 t0.8 0.12 l-0.02 14.28 q-0.2 0.06 -0.58 0.12 t-0.82 0.06 q-0.5 0 -0.9 -0.07 t-0.58 -0.11 l-4.66 -7.8 l0 7.8 q-0.88 0.18 -1.6 0.18 t-1.62 -0.18 l0 -14.28 z  M129.08 16.84 q0 4.24 3.56 4.24 q0.64 0 1.21 -0.12 t1.39 -0.4 q0.66 1.44 0.88 2.96 q-0.58 0.22 -1.08 0.36 t-0.96 0.21 t-0.91 0.1 t-0.93 0.03 q-1.7 0 -2.99 -0.55 t-2.16 -1.53 t-1.31 -2.34 t-0.44 -2.96 t0.46 -2.97 t1.33 -2.37 t2.15 -1.56 t2.9 -0.56 q0.96 0 1.82 0.14 t1.92 0.56 q-0.04 0.82 -0.3 1.59 t-0.54 1.35 q-0.4 -0.14 -0.73 -0.24 t-0.63 -0.16 t-0.6 -0.09 t-0.64 -0.03 q-1.62 0 -2.51 1.09 t-0.89 3.25 z M137.9 9.66 q0.98 -0.1 1.81 -0.19 t1.75 -0.09 q1.1 0 2.2 0.21 t1.96 0.73 t1.4 1.42 t0.54 2.28 q0 0.74 -0.17 1.33 t-0.44 1.05 t-0.6 0.8 t-0.65 0.58 l3.12 6.16 q-0.48 0.08 -1.05 0.12 t-1.03 0.04 q-0.4 0 -0.93 -0.04 t-0.93 -0.12 l-2.84 -6.54 l0.18 -0.1 q0.24 -0.12 0.53 -0.4 t0.54 -0.67 t0.42 -0.87 t0.17 -1 q0 -1 -0.56 -1.46 t-1.38 -0.46 q-0.2 0 -0.34 0.02 t-0.18 0.04 l0 11.44 q-1.06 0.18 -1.74 0.18 q-0.74 0 -1.78 -0.18 l0 -14.28 z M157.8 16.5 q0 0.7 -0.18 1.56 l-3.86 0 l0 2.84 l5.02 0 q0.18 0.84 0.18 1.52 q0 0.74 -0.18 1.58 l-8.56 0 l0 -14.38 l8.44 0 q0.08 0.44 0.12 0.82 t0.04 0.72 q0 0.66 -0.16 1.58 l-4.9 0 l0 2.2 l3.86 0 q0.18 0.88 0.18 1.56 z M159.14000000000001 5.920000000000002 q-0.35998 -0.06 -0.849942 -0.09 q-0.48998 -0.03 -1.009942 -0.03 q-1.059942 0 -1.839902 0.12 l-2.1398 2.46 q0.33998 0.08 0.70996 0.1 t0.74996 0.02 q0.859942 0 1.459902 -0.12 z M164.74 9.38 q3.78 0 5.74 1.89 t1.96 5.63 q0 3.8 -2 5.57 t-5.92 1.77 q-1 0 -1.93 -0.09 t-1.83 -0.21 l0 -14.28 q0.3 -0.04 0.76 -0.09 t1 -0.09 t1.11 -0.07 t1.11 -0.03 z M164.3 21.1 q0.14 0.02 0.32 0.02 l0.38 0 q0.78 0 1.47 -0.19 t1.19 -0.67 t0.79 -1.3 t0.29 -2.1 q0 -1.26 -0.3 -2.1 t-0.79 -1.33 t-1.15 -0.7 t-1.38 -0.21 q-0.4 0 -0.58 0.01 t-0.24 0.01 l0 8.56 z M176.23999999999998 24.12 q-0.74 0 -1.78 -0.18 l0 -14.28 q0.54 -0.08 0.98 -0.12 t0.78 -0.04 q0.36 0 0.81 0.04 t0.97 0.12 l0 14.28 q-1.06 0.18 -1.76 0.18 z M183.01999999999998 12.74 l-3.34 0 q-0.18 -0.86 -0.18 -1.58 q0 -0.66 0.18 -1.54 l10.22 0 q0.08 0.44 0.12 0.82 t0.04 0.72 q0 0.66 -0.16 1.58 l-3.34 0 l0 11.2 q-1.06 0.18 -1.76 0.18 q-0.74 0 -1.78 -0.18 l0 -11.2 z M193.32 20.42 q0.4 0 0.82 0.04 t0.88 0.1 q0.08 0.46 0.12 0.88 t0.04 0.82 t-0.04 0.82 t-0.12 0.88 q-0.46 0.08 -0.88 0.12 t-0.82 0.04 t-0.82 -0.04 t-0.88 -0.12 q-0.08 -0.46 -0.12 -0.88 t-0.04 -0.82 t0.04 -0.82 t0.12 -0.88 q0.46 -0.06 0.88 -0.1 t0.82 -0.04 z M199.23999999999998 20.42 q0.4 0 0.82 0.04 t0.88 0.1 q0.08 0.46 0.12 0.88 t0.04 0.82 t-0.04 0.82 t-0.12 0.88 q-0.46 0.08 -0.88 0.12 t-0.82 0.04 t-0.82 -0.04 t-0.88 -0.12 q-0.08 -0.46 -0.12 -0.88 t-0.04 -0.82 t0.04 -0.82 t0.12 -0.88 q0.46 -0.06 0.88 -0.1 t0.82 -0.04 z M205.15999999999997 20.42 q0.4 0 0.82 0.04 t0.88 0.1 q0.08 0.46 0.12 0.88 t0.04 0.82 t-0.04 0.82 t-0.12 0.88 q-0.46 0.08 -0.88 0.12 t-0.82 0.04 t-0.82 -0.04 t-0.88 -0.12 q-0.08 -0.46 -0.12 -0.88 t-0.04 -0.82 t0.04 -0.82 t0.12 -0.88 q0.46 -0.06 0.88 -0.1 t0.82 -0.04 z"></path></g>
			</g>
		</svg>
	